<svg xmlns="http://www.w3.org/2000/svg" xmlns:xlink="http://www.w3.org/1999/xlink" x="0" y="0" version="1.1" viewBox="0 0 417.11 376" xml:space="preserve" style="enable-background:new 0 0 417.11 376"><style type="text/css">.st0{fill:#4262cc}.st1{fill:#fff}.st2{fill:#d7f1ff}.st3{fill:#111c30}.st4{fill:#eabd42}.st5{fill:#1c2c3f}.st6{fill:#b4ddef}.st7{fill:#bc1f2c}.st8{fill:#273991}.st10,.st9{fill:none;stroke-width:.9692;stroke-miterlimit:10}.st9{stroke:#273991}.st10{stroke:#d7f1ff}.st11{fill:#da9c38}.st12{fill:#fffdff}.st13{fill:none;stroke:#5683db;stroke-width:2.0089;stroke-linejoin:round;stroke-miterlimit:10}.st14{fill:#e5aa40}.st15{fill:#9e1324}.st16{fill:#384fa0}.st17,.st18{fill:none;stroke:#111c30;stroke-width:1.0001;stroke-miterlimit:10}.st18{stroke:#f7f7f7;stroke-width:2.0089;stroke-linejoin:round}.st19{font-family:&apos;GameOfSquids&apos;}.st20{font-size:6px}</style><g id="Objects"><g><path d="M351.71,318.93c0,3.26-2.67,5.9-5.96,5.9H83.86c-3.29,0-5.96-2.64-5.96-5.9l0,0c0-3.26,2.67-5.9,5.96-5.9 h261.89C349.04,313.03,351.71,315.67,351.71,318.93L351.71,318.93z" class="st0"/><g><g><g><rect width="76.91" height="22.39" x="176.14" y="280.41" class="st1" transform="matrix(-1 -1.224647e-16 1.224647e-16 -1 429.1971 583.2029)"/><rect width="76.91" height="7.49" x="176.14" y="295.3" class="st2" transform="matrix(-1 -1.224647e-16 1.224647e-16 -1 429.1971 598.0996)"/><path d="M175.46,302.8h78.28c9.18,0,16.62,7.22,16.62,16.13H158.84C158.84,310.02,166.28,302.8,175.46,302.8z" class="st1"/></g><g><path d="M90.31,280.41h248.98c2.38,0,4.3-1.93,4.3-4.3v-155.9c0-2.37-1.92-4.29-4.29-4.29H90.31 c-2.37,0-4.29,1.92-4.29,4.29v155.9C86.01,278.48,87.94,280.41,90.31,280.41z" class="st1"/><path d="M92.98,278.18h243.64c2.37,0,4.29-1.92,4.29-4.29V122.43c0-2.37-1.92-4.3-4.3-4.3H92.99 c-2.37,0-4.29,1.92-4.29,4.29v151.46C88.69,276.26,90.61,278.18,92.98,278.18z" class="st3"/><path d="M103.26,265h223.08c2.07,0,3.75-1.68,3.75-3.75V135.07c0-2.07-1.68-3.75-3.75-3.75H103.27 c-2.07,0-3.75,1.68-3.75,3.75v126.18C99.52,263.32,101.19,265,103.26,265z" class="st2"/></g></g><g><g><path d="M114.8,265V97.28c0-1.96,1.6-3.55,3.58-3.55h192.84c1.98,0,3.58,1.59,3.58,3.55V265H114.8z" class="st1"/><g><path d="M118.38,93.74h192.84c1.98,0,3.58,1.59,3.58,3.55v12.95H114.8V97.28 C114.8,95.33,116.4,93.74,118.38,93.74z" class="st3"/><g><path d="M302.44,102.2c0,1.34,1.1,2.43,2.45,2.43c1.36,0,2.46-1.09,2.46-2.43c0-1.34-1.1-2.43-2.46-2.43 C303.54,99.77,302.44,100.86,302.44,102.2z" class="st4"/><path d="M292.76,102.2c0,1.34,1.1,2.43,2.45,2.43c1.36,0,2.46-1.09,2.46-2.43c0-1.34-1.1-2.43-2.46-2.43 C293.86,99.77,292.76,100.86,292.76,102.2z" class="st4"/><path d="M283.09,102.2c0,1.34,1.1,2.43,2.45,2.43c1.36,0,2.46-1.09,2.46-2.43c0-1.34-1.1-2.43-2.46-2.43 C284.18,99.77,283.09,100.86,283.09,102.2z" class="st4"/></g><path d="M125.66,105.59h149.53c0.58,0,1.05-0.41,1.05-0.92v-4.93c0-0.51-0.47-0.92-1.05-0.92H125.66 c-0.58,0-1.05,0.41-1.05,0.92v4.93C124.62,105.17,125.09,105.59,125.66,105.59z" class="st5"/></g></g><rect width="200.01" height="12.07" x="114.8" y="110.23" class="st2"/><g><path d="M121.08,196.36h38.88c0.35,0,0.63-0.33,0.63-0.74V171.7c0-0.41-0.28-0.74-0.63-0.74h-38.88 c-0.35,0-0.64,0.33-0.64,0.74v23.92C120.45,196.03,120.73,196.36,121.08,196.36z" class="st6"/><g><rect width="27.53" height="3.23" x="123.92" y="179.44" class="st7"/><rect width="13.15" height="3.23" x="123.92" y="184.64" class="st8"/><rect width="18.51" height="3.23" x="138.69" y="184.64" class="st8"/></g></g><g><path d="M121.08,227.79h38.88c0.35,0,0.63-0.33,0.63-0.74v-23.91c0-0.41-0.28-0.74-0.63-0.74h-38.88 c-0.35,0-0.64,0.33-0.64,0.74v23.91C120.45,227.46,120.73,227.79,121.08,227.79z" class="st6"/><g><rect width="27.53" height="3.23" x="123.92" y="210.87" class="st7"/><rect width="13.15" height="3.23" x="123.92" y="216.07" class="st8"/><rect width="18.51" height="3.23" x="138.69" y="216.07" class="st8"/></g></g><g><path d="M121.08,259.22h38.88c0.35,0,0.63-0.33,0.63-0.74v-23.91c0-0.41-0.28-0.75-0.63-0.75h-38.88 c-0.35,0-0.64,0.34-0.64,0.75v23.91C120.45,258.89,120.73,259.22,121.08,259.22z" class="st6"/><g><rect width="27.53" height="3.23" x="123.92" y="242.31" class="st7"/><rect width="13.15" height="3.23" x="123.92" y="247.5" class="st8"/><rect width="18.51" height="3.23" x="138.69" y="247.5" class="st8"/></g></g><path d="M121.54,166.29h185.3c0.63,0,1.15-0.51,1.15-1.15v-35.32c0-0.63-0.52-1.15-1.15-1.15h-185.3 c-0.64,0-1.15,0.52-1.15,1.15v35.32C120.39,165.77,120.9,166.29,121.54,166.29z" class="st4"/><g><g><path d="M172.27,212.75h134.5c0.67,0,1.21-0.55,1.21-1.22v-39.35c0-0.68-0.54-1.22-1.21-1.22h-134.5 c-0.67,0-1.21,0.55-1.21,1.22v39.35C171.06,212.21,171.6,212.75,172.27,212.75z" class="st6"/><path d="M172.27,170.96c-0.67,0-1.21,0.55-1.21,1.22v39.35c0,0.68,0.54,1.22,1.21,1.22h40.19v-41.8H172.27z" class="st2"/><g><g><rect width="83.69" height="1.41" x="218.38" y="189.46" class="st8"/><rect width="41.74" height="1.42" x="218.38" y="193.08" class="st8"/><rect width="38.89" height="1.42" x="263.18" y="193.08" class="st8"/><rect width="16.39" height="1.42" x="218.38" y="196.69" class="st8"/><rect width="33.8" height="1.42" x="237.66" y="196.69" class="st8"/></g><g><rect width="48.13" height="3.45" x="218.38" y="175.88" class="st3"/><rect width="21.91" height="3.45" x="218.38" y="181.43" class="st3"/><rect width="33.74" height="3.45" x="243.25" y="181.43" class="st3"/></g></g><path d="M302.65,204.95c0,1.9-1.52,3.44-3.4,3.44h-18.97c-1.88,0-3.4-1.54-3.4-3.44l0,0c0-1.9,1.52-3.43,3.4-3.43 h18.97C301.13,201.51,302.65,203.05,302.65,204.95L302.65,204.95z" class="st4"/><g><rect width="33.54" height="33.21" x="174.97" y="175.18" class="st9" transform="matrix(-1 -1.224647e-16 1.224647e-16 -1 383.4885 383.5592)"/><line x1="208.51" x2="174.97" y1="175.18" y2="208.38" class="st9"/><line x1="174.97" x2="208.51" y1="175.18" y2="208.38" class="st9"/></g><rect width="37.13" height="1.44" x="218.38" y="205.42" class="st7"/></g><g><path d="M172.27,259.22h134.5c0.67,0,1.21-0.55,1.21-1.22v-39.35c0-0.68-0.54-1.22-1.21-1.22h-134.5 c-0.67,0-1.21,0.55-1.21,1.22V258C171.06,258.68,171.6,259.22,172.27,259.22z" class="st6"/><path d="M172.27,217.43c-0.67,0-1.21,0.55-1.21,1.22V258c0,0.68,0.54,1.22,1.21,1.22h40.19v-41.8H172.27z" class="st2"/><g><g><rect width="83.69" height="1.41" x="218.38" y="235.93" class="st8"/><rect width="41.74" height="1.41" x="218.38" y="239.55" class="st8"/><rect width="38.89" height="1.41" x="263.18" y="239.55" class="st8"/><rect width="16.39" height="1.42" x="218.38" y="243.16" class="st8"/><rect width="33.8" height="1.42" x="237.66" y="243.16" class="st8"/></g><g><rect width="48.13" height="3.45" x="218.38" y="222.35" class="st3"/><rect width="21.91" height="3.45" x="218.38" y="227.9" class="st3"/><rect width="33.74" height="3.45" x="243.25" y="227.9" class="st3"/></g></g><path d="M302.65,251.42c0,1.9-1.52,3.43-3.4,3.43h-18.97c-1.88,0-3.4-1.54-3.4-3.43l0,0c0-1.9,1.52-3.43,3.4-3.43 h18.97C301.13,247.98,302.65,249.52,302.65,251.42L302.65,251.42z" class="st4"/><g><rect width="33.54" height="33.21" x="174.97" y="221.64" class="st9" transform="matrix(-1 -1.224647e-16 1.224647e-16 -1 383.4885 476.4958)"/><line x1="208.51" x2="174.97" y1="221.64" y2="254.85" class="st9"/><line x1="174.97" x2="208.51" y1="221.64" y2="254.85" class="st9"/></g><rect width="37.13" height="1.44" x="218.38" y="251.89" class="st7"/></g></g><line x1="165.34" x2="165.34" y1="166.29" y2="265" class="st10"/></g><g><path d="M268.65,294.15h111.11c0.65,0,1.19-0.54,1.19-1.19v-40.04c0-0.65-0.53-1.19-1.19-1.19H268.65 c-0.66,0-1.19,0.53-1.19,1.19v40.05C267.46,293.62,267.99,294.15,268.65,294.15z" class="st6"/><path d="M268.72,251.72c-0.69,0-1.25,0.56-1.25,1.24v39.94c0,0.69,0.56,1.24,1.25,1.24h41.59v-42.42H268.72z" class="st2"/><g><rect width="62.77" height="1.44" x="314.32" y="270.5" class="st8"/><rect width="32.05" height="1.44" x="314.32" y="274.18" class="st8"/><rect width="28.47" height="1.44" x="348.62" y="274.18" class="st8"/><rect width="13.5" height="1.44" x="314.32" y="277.85" class="st8"/><rect width="24.75" height="1.44" x="329.93" y="277.85" class="st8"/></g><g><rect width="51.93" height="3.51" x="314.32" y="256.72" class="st3"/><rect width="24.79" height="3.5" x="314.32" y="262.35" class="st3"/><rect width="34.92" height="3.5" x="342.17" y="262.35" class="st3"/></g><path d="M377.09,286.91c0,1.55-1.27,2.8-2.83,2.8h-15.79c-1.56,0-2.83-1.26-2.83-2.8l0,0c0-1.54,1.27-2.8,2.83-2.8 h15.79C375.82,284.1,377.09,285.36,377.09,286.91L377.09,286.91z" class="st4"/><rect width="37.13" height="1.44" x="314.32" y="286.19" class="st7"/><g><rect width="34.9" height="34.55" x="271.38" y="255.94" class="st9" transform="matrix(-1 -1.224647e-16 1.224647e-16 -1 577.6533 546.4349)"/><line x1="306.28" x2="271.38" y1="255.94" y2="290.49" class="st9"/><line x1="271.38" x2="306.28" y1="255.94" y2="290.49" class="st9"/></g></g><g><path d="M131.95,232.51H89.13l-1.85-6.57c-0.57-1.82-1.48-2.25-3.91-2.25H65.5c-1.05,0-1.9,0.85-1.9,1.89v8.82 v0.18v37.08c0,1.04,0.85,1.88,1.9,1.88h66.45c1.05,0,1.9-0.84,1.9-1.88V234.4C133.85,233.35,133,232.51,131.95,232.51z" class="st11"/><rect width="59.13" height="73.72" x="69.16" y="208.2" class="st12"/><g><polyline points="106.65 232.39 111.53 227.55 106.65 222.71" class="st13"/><polyline points="92.39 232.39 87.51 227.55 92.39 222.71" class="st13"/><line x1="101.96" x2="96.96" y1="222.71" y2="232.86" class="st13"/></g><path d="M131.95,247.82H89.13l-1.85-6.57c-0.57-1.82-1.48-2.25-3.91-2.25H65.5c-1.05,0-1.9,0.84-1.9,1.89v8.82v0.18 v37.08c0,1.04,0.85,1.88,1.9,1.88h66.45c1.05,0,1.9-0.84,1.9-1.88V249.7C133.85,248.66,133,247.82,131.95,247.82z" class="st4"/><path d="M65.5,288.85h60.3v-25.74c0-0.92-0.75-1.67-1.68-1.67H86.2l-1.64-5.82c-0.5-1.61-1.31-1.99-3.46-1.99 H65.28c-0.93,0-1.69,0.75-1.69,1.67v7.81v0.16v23.7C63.59,288,64.45,288.85,65.5,288.85z" class="st14"/><g><path d="M118.17,263.58c-5.31-9.55-18.28-9.75-18.28-9.75l0,0.02v-0.02c0,0-12.97,0.21-18.28,9.75 c0,0-0.58,20.96,18.28,29.67C118.76,284.54,118.17,263.58,118.17,263.58z" class="st1"/><path d="M114.68,264.9c-4.29-7.79-14.79-7.96-14.79-7.96l0,0.01v-0.01c0,0-10.49,0.17-14.79,7.96 c0,0-0.47,17.11,14.79,24.22C115.15,282.01,114.68,264.9,114.68,264.9z" class="st7"/><path d="M107.24,268.99c-2.13-3.87-7.35-3.96-7.35-3.96l0,0.01v-0.01c0,0-5.22,0.08-7.35,3.96 c0,0-0.23,8.5,7.35,12.04C107.47,277.5,107.24,268.99,107.24,268.99z" class="st15"/><g><path d="M102.53,271.31c0,1.44-1.18,2.61-2.64,2.61c-1.46,0-2.64-1.17-2.64-2.61c0-1.45,1.18-2.61,2.64-2.61 C101.35,268.7,102.53,269.87,102.53,271.31z" class="st3"/><path d="M100.62,276.64c0,0.4-0.33,0.73-0.73,0.73l0,0c-0.41,0-0.74-0.33-0.74-0.73V273 c0-0.4,0.33-0.73,0.74-0.73l0,0c0.4,0,0.73,0.32,0.73,0.73V276.64z" class="st3"/></g></g></g><g><g><g><path d="M195.56,61.74c0.09-0.62,0.14-1.25,0.14-1.9c0-7.04-5.76-12.75-12.87-12.75c-2.06,0-4.01,0.48-5.74,1.34 c-2.77-5.63-8.6-9.51-15.34-9.51c-9.42,0-17.05,7.56-17.05,16.88c0,0.26,0.01,0.52,0.02,0.78c-0.29-0.02-0.57-0.03-0.86-0.03 c-7.07,0-12.81,5.68-12.81,12.68c0,6.93,5.62,12.56,12.59,12.68v0.01h51.42v0c0.05,0,0.09,0,0.14,0 c5.63,0,10.2-4.52,10.2-10.1C205.4,66.37,201.02,61.93,195.56,61.74z" class="st1"/><path d="M186.18,68.66c0.06-0.4,0.09-0.82,0.09-1.24c0-4.63-3.79-8.38-8.46-8.38c-1.36,0-2.64,0.32-3.77,0.88 c-1.82-3.7-5.65-6.25-10.08-6.25c-6.19,0-11.2,4.97-11.2,11.09c0,0.17,0.01,0.34,0.01,0.51c-0.19-0.01-0.38-0.02-0.57-0.02 c-4.65,0-8.42,3.73-8.42,8.33c0,4.55,3.69,8.25,8.27,8.33v0h33.78v0c0.03,0,0.06,0,0.09,0c3.7,0,6.7-2.97,6.7-6.64 C192.64,71.7,189.77,68.78,186.18,68.66z" class="st2"/></g><g><g><rect width="9.51" height="17.24" x="163.46" y="67.7" class="st7"/><polygon points="168.22 57.22 159.46 68.45 176.97 68.45" class="st7"/></g></g></g><g><g><path d="M288.73,61.74c0.09-0.62,0.14-1.25,0.14-1.9c0-7.04-5.77-12.75-12.87-12.75c-2.07,0-4.01,0.48-5.74,1.34 c-2.76-5.63-8.6-9.51-15.34-9.51c-9.42,0-17.05,7.56-17.05,16.88c0,0.26,0.01,0.52,0.02,0.78c-0.29-0.02-0.57-0.03-0.87-0.03 c-7.07,0-12.81,5.68-12.81,12.68c0,6.93,5.62,12.56,12.6,12.68v0.01h51.42v0c0.05,0,0.09,0,0.14,0c5.63,0,10.2-4.52,10.2-10.1 C298.57,66.37,294.2,61.93,288.73,61.74z" class="st1"/><path d="M279.35,68.66c0.06-0.4,0.09-0.82,0.09-1.24c0-4.63-3.79-8.38-8.46-8.38c-1.36,0-2.64,0.32-3.77,0.88 c-1.82-3.7-5.65-6.25-10.08-6.25c-6.19,0-11.2,4.97-11.2,11.09c0,0.17,0.01,0.34,0.01,0.51c-0.19-0.01-0.38-0.02-0.57-0.02 c-4.65,0-8.41,3.73-8.41,8.33c0,4.55,3.69,8.25,8.27,8.33v0h33.79v0c0.03,0,0.06,0,0.09,0c3.7,0,6.7-2.97,6.7-6.64 C285.82,71.7,282.94,68.78,279.35,68.66z" class="st2"/></g><g><rect width="9.52" height="17.24" x="256.63" y="58.57" class="st4"/><polygon points="261.39 86.29 252.63 75.05 270.15 75.05" class="st4"/></g></g></g><g><path d="M240.58,281.58c0.33,0.43,0.25,1.04-0.19,1.37l-11.08,8.36c-0.43,0.33-1.05,0.24-1.38-0.18l-29.98-38.96 c-0.33-0.43-0.24-1.04,0.19-1.37l11.08-8.36c0.43-0.33,1.05-0.24,1.38,0.18L240.58,281.58z" class="st8"/><path d="M233.99,280.7c0.17,0.22,0.16,0.5-0.02,0.64l-4.52,3.41c-0.18,0.13-0.46,0.06-0.62-0.15l-23.57-30.63 c-0.17-0.22-0.16-0.5,0.02-0.64l4.52-3.41c0.18-0.13,0.46-0.06,0.62,0.15L233.99,280.7z" class="st16"/><path d="M197.91,226.12l7.49,9.73c0.33,0.43,0.25,1.04-0.19,1.37l-11.08,8.36c-0.43,0.33-1.05,0.24-1.38-0.18 l-7.49-9.73c-1.97,4.86-1.4,10.59,2.04,15.07c5.2,6.76,14.96,8.07,21.79,2.92c6.83-5.15,8.15-14.81,2.94-21.57 C208.6,227.6,203.17,225.53,197.91,226.12z" class="st8"/><path d="M205.4,235.85c0.33,0.43,0.25,1.04-0.19,1.37l-11.08,8.36c-0.43,0.33-1.05,0.24-1.38-0.18l-3.23-4.2 c-0.05,2.2,0.62,4.42,2.07,6.3c3.4,4.42,9.78,5.28,14.25,1.91c4.47-3.37,5.33-9.68,1.92-14.1c-1.45-1.88-3.44-3.11-5.59-3.65 L205.4,235.85z" class="st16"/></g><g><path d="M361.19,205.09h-64.46c-0.56,0-1.02-0.46-1.02-1.02v-54.2c0-0.56,0.46-1.02,1.02-1.02h64.46 c0.56,0,1.02,0.46,1.02,1.02v54.2C362.21,204.63,361.75,205.09,361.19,205.09z" class="st1"/><path d="M357.84,189.08h-57.77c-0.56,0-1.02-0.46-1.02-1.02v-34.87c0-0.56,0.46-1.02,1.02-1.02h57.77 c0.56,0,1.02,0.46,1.02,1.02v34.87C358.86,188.62,358.4,189.08,357.84,189.08z" class="st8"/><path d="M323.22,162.56v16.12c0,1.61,1.85,2.53,3.16,1.57l10.95-8.06c1.07-0.78,1.07-2.36,0-3.15l-10.95-8.06 C325.08,160.03,323.22,160.95,323.22,162.56z" class="st4"/><line x1="299.05" x2="358.86" y1="196.83" y2="196.83" class="st17"/><path d="M308.88,196.79c0,1.18-0.97,2.13-2.16,2.13c-1.19,0-2.15-0.95-2.15-2.13c0-1.18,0.97-2.13,2.15-2.13 C307.91,194.65,308.88,195.61,308.88,196.79z" class="st7"/></g><g><path d="M107.22,195.08h-68c-0.72,0-1.31-0.53-1.31-1.18v-33.85c0-0.65,0.59-1.18,1.31-1.18h68 c0.72,0,1.31,0.53,1.31,1.18v33.85C108.53,194.55,107.95,195.08,107.22,195.08z" class="st8"/><g><rect width="16.14" height="2.25" x="42.8" y="175.75" class="st1"/><rect width="15.25" height="2.25" x="62.88" y="175.75" class="st7"/><rect width="13.54" height="2.25" x="73.48" y="180.75" class="st1"/><rect width="22.94" height="2.25" x="81.08" y="175.75" class="st1"/><rect width="16.14" height="2.25" x="42.8" y="185.62" class="st7"/><rect width="15.25" height="2.25" x="62.88" y="185.62" class="st1"/><rect width="22.94" height="2.25" x="81.08" y="185.62" class="st1"/><rect width="27.7" height="2.25" x="42.8" y="180.75" class="st7"/></g><path d="M37.92,160.05v8.49h70.61v-8.49c0-0.65-0.58-1.18-1.31-1.18h-68C38.5,158.86,37.92,159.39,37.92,160.05z" class="st3"/><g><path d="M91.58,163.72c0,0.88-0.72,1.59-1.6,1.59c-0.88,0-1.6-0.71-1.6-1.59c0-0.88,0.72-1.59,1.6-1.59 C90.86,162.14,91.58,162.85,91.58,163.72z" class="st4"/><path d="M97.89,163.72c0,0.88-0.72,1.59-1.6,1.59c-0.88,0-1.6-0.71-1.6-1.59c0-0.88,0.72-1.59,1.6-1.59 C97.18,162.14,97.89,162.85,97.89,163.72z" class="st4"/><path d="M104.21,163.72c0,0.88-0.72,1.59-1.6,1.59c-0.88,0-1.6-0.71-1.6-1.59c0-0.88,0.72-1.59,1.6-1.59 C103.49,162.14,104.21,162.85,104.21,163.72z" class="st4"/></g></g><g><path d="M374.49,126.6h-40.94c-0.42,0-0.76-0.34-0.76-0.76V85.33c0-0.42,0.34-0.76,0.76-0.76h40.93 c0.42,0,0.76,0.34,0.76,0.76v40.52C375.24,126.26,374.9,126.6,374.49,126.6z" class="st8"/><path d="M332.79,85.36v10.91h42.45V85.36c0-0.44-0.36-0.79-0.8-0.79h-40.85C333.15,84.57,332.79,84.93,332.79,85.36 z" class="st3"/><g><path d="M359.78,90.46c0,0.77-0.63,1.4-1.42,1.4c-0.78,0-1.42-0.63-1.42-1.4c0-0.78,0.64-1.4,1.42-1.4 C359.14,89.06,359.78,89.68,359.78,90.46z" class="st4"/><path d="M365.37,90.46c0,0.77-0.63,1.4-1.42,1.4c-0.78,0-1.42-0.63-1.42-1.4c0-0.78,0.63-1.4,1.42-1.4 C364.73,89.06,365.37,89.68,365.37,90.46z" class="st4"/><path d="M370.95,90.46c0,0.77-0.63,1.4-1.42,1.4c-0.78,0-1.42-0.63-1.42-1.4c0-0.78,0.63-1.4,1.42-1.4 C370.32,89.06,370.95,89.68,370.95,90.46z" class="st4"/></g><g><polyline points="361.36 116.21 366.24 111.38 361.36 106.54" class="st18"/><polyline points="347.11 116.21 342.22 111.38 347.11 106.54" class="st18"/><line x1="356.67" x2="351.67" y1="106.54" y2="116.69" class="st18"/></g></g><g><path d="M96.02,125.65H55.08c-0.42,0-0.76-0.34-0.76-0.76V84.37c0-0.42,0.34-0.76,0.76-0.76h40.93 c0.42,0,0.76,0.34,0.76,0.76v40.52C96.77,125.31,96.44,125.65,96.02,125.65z" class="st8"/><path d="M54.32,84.41v10.91h42.45V84.41c0-0.44-0.36-0.79-0.8-0.79H55.12C54.68,83.61,54.32,83.97,54.32,84.41z" class="st3"/><g><path d="M81.31,89.5c0,0.77-0.63,1.4-1.42,1.4c-0.78,0-1.42-0.63-1.42-1.4c0-0.78,0.64-1.4,1.42-1.4 C80.68,88.1,81.31,88.73,81.31,89.5z" class="st4"/><path d="M86.9,89.5c0,0.77-0.63,1.4-1.42,1.4c-0.78,0-1.42-0.63-1.42-1.4c0-0.78,0.63-1.4,1.42-1.4 C86.26,88.1,86.9,88.73,86.9,89.5z" class="st4"/><path d="M92.48,89.5c0,0.77-0.63,1.4-1.42,1.4c-0.78,0-1.42-0.63-1.42-1.4c0-0.78,0.63-1.4,1.42-1.4 C91.85,88.1,92.48,88.73,92.48,89.5z" class="st4"/></g><g><polyline points="82.89 115.26 87.77 110.42 82.89 105.59" class="st18"/><polyline points="68.64 115.26 63.75 110.42 68.64 105.59" class="st18"/><line x1="78.2" x2="73.2" y1="105.59" y2="115.74" class="st18"/></g></g></g></g><text class="st5 st19 st20" transform="matrix(1 0 0 1 137.4814 274.1556)">THARINDU JAYAKODY</text></g></svg>