<svg id="ewE9zgYZV2W1" xmlns="http://www.w3.org/2000/svg" xmlns:xlink="http://www.w3.org/1999/xlink" viewBox="0 0 450 450" shape-rendering="geometricPrecision" text-rendering="geometricPrecision"><style><![CDATA[#ewE9zgYZV2W464_ts {animation: ewE9zgYZV2W464_ts__ts 10000ms linear infinite normal forwards}@keyframes ewE9zgYZV2W464_ts__ts { 0% {transform: translate(87.014999px,127.5px) scale(1,1);animation-timing-function: cubic-bezier(0.47,0,0.745,0.715)} 14% {transform: translate(87.014999px,127.5px) scale(1.5,1.5)} 22% {transform: translate(87.014999px,127.5px) scale(1,1)} 100% {transform: translate(87.014999px,127.5px) scale(1,1)}} #ewE9zgYZV2W480_ts {animation: ewE9zgYZV2W480_ts__ts 10000ms linear infinite normal forwards}@keyframes ewE9zgYZV2W480_ts__ts { 0% {transform: translate(262.400009px,150.860001px) scale(1,1)} 28% {transform: translate(262.400009px,150.860001px) scale(1,1);animation-timing-function: cubic-bezier(0.47,0,0.745,0.715)} 42% {transform: translate(262.400009px,150.860001px) scale(1.5,1.5)} 46% {transform: translate(262.400009px,150.860001px) scale(1,1)} 100% {transform: translate(262.400009px,150.860001px) scale(1,1)}} #ewE9zgYZV2W569_ts {animation: ewE9zgYZV2W569_ts__ts 10000ms linear infinite normal forwards}@keyframes ewE9zgYZV2W569_ts__ts { 0% {transform: translate(219.935005px,62.839998px) scale(1,1)} 75% {transform: translate(219.935005px,62.839998px) scale(1,1);animation-timing-function: cubic-bezier(0.47,0,0.745,0.715)} 85% {transform: translate(219.935005px,62.839998px) scale(1.5,1.5)} 94% {transform: translate(219.935005px,62.839998px) scale(1,1)} 100% {transform: translate(219.935005px,62.839998px) scale(1,1)}} #ewE9zgYZV2W578_ts {animation: ewE9zgYZV2W578_ts__ts 10000ms linear infinite normal forwards}@keyframes ewE9zgYZV2W578_ts__ts { 0% {transform: translate(369.544998px,142.364998px) scale(1,1)} 52% {transform: translate(369.544998px,142.364998px) scale(1,1);animation-timing-function: cubic-bezier(0.47,0,0.745,0.715)} 62% {transform: translate(369.544998px,142.364998px) scale(1.5,1.5)} 73% {transform: translate(369.544998px,142.364998px) scale(1,1)} 100% {transform: translate(369.544998px,142.364998px) scale(1,1)}}]]></style><defs><polygon id="ewE9zgYZV2W2" points="205,319.26 151.12,287.78 182.03,248.92 114.83,196.27 90.62,193.95 47.71,355.53 138.29,400.79"/><polygon id="ewE9zgYZV2W3" points="316.01,325.44 315.7,312.29 334.37,316.75 334.69,329.91"/><linearGradient id="ewE9zgYZV2W62-fill" x1="143.814299" y1="240.9895" x2="147.260199" y2="240.9895" spreadMethod="pad" gradientUnits="userSpaceOnUse" gradientTransform="translate(0 0)"><stop id="ewE9zgYZV2W62-fill-0" offset="0%" stop-color="#dccbde"/><stop id="ewE9zgYZV2W62-fill-1" offset="100%" stop-color="#b48db8"/></linearGradient><linearGradient id="ewE9zgYZV2W63-fill" x1="146.621699" y1="242.6223" x2="150.066899" y2="242.6223" spreadMethod="pad" gradientUnits="userSpaceOnUse" gradientTransform="translate(0 0)"><stop id="ewE9zgYZV2W63-fill-0" offset="0%" stop-color="#dccbde"/><stop id="ewE9zgYZV2W63-fill-1" offset="100%" stop-color="#b48db8"/></linearGradient><linearGradient id="ewE9zgYZV2W66-fill" x1="180.309399" y1="262.2141" x2="183.754799" y2="262.2141" spreadMethod="pad" gradientUnits="userSpaceOnUse" gradientTransform="translate(0 0)"><stop id="ewE9zgYZV2W66-fill-0" offset="0%" stop-color="#dccbde"/><stop id="ewE9zgYZV2W66-fill-1" offset="100%" stop-color="#b48db8"/></linearGradient><linearGradient id="ewE9zgYZV2W67-fill" x1="141.442599" y1="242.1451" x2="145.658999" y2="242.1451" spreadMethod="pad" gradientUnits="userSpaceOnUse" gradientTransform="translate(0 0)"><stop id="ewE9zgYZV2W67-fill-0" offset="0%" stop-color="#dccbde"/><stop id="ewE9zgYZV2W67-fill-1" offset="100%" stop-color="#b48db8"/></linearGradient><linearGradient id="ewE9zgYZV2W68-fill" x1="144.249799" y1="243.7773" x2="148.466199" y2="243.7773" spreadMethod="pad" gradientUnits="userSpaceOnUse" gradientTransform="translate(0 0)"><stop id="ewE9zgYZV2W68-fill-0" offset="0%" stop-color="#dccbde"/><stop id="ewE9zgYZV2W68-fill-1" offset="100%" stop-color="#b48db8"/></linearGradient><linearGradient id="ewE9zgYZV2W71-fill" x1="172.322999" y1="260.1039" x2="176.539399" y2="260.1039" spreadMethod="pad" gradientUnits="userSpaceOnUse" gradientTransform="translate(0 0)"><stop id="ewE9zgYZV2W71-fill-0" offset="0%" stop-color="#dccbde"/><stop id="ewE9zgYZV2W71-fill-1" offset="100%" stop-color="#b48db8"/></linearGradient><linearGradient id="ewE9zgYZV2W74-fill" x1="169.515799" y1="258.4713" x2="173.731999" y2="258.4713" spreadMethod="pad" gradientUnits="userSpaceOnUse" gradientTransform="translate(0 0)"><stop id="ewE9zgYZV2W74-fill-0" offset="0%" stop-color="#dccbde"/><stop id="ewE9zgYZV2W74-fill-1" offset="100%" stop-color="#b48db8"/></linearGradient><linearGradient id="ewE9zgYZV2W77-fill" x1="166.708199" y1="256.8388" x2="170.924599" y2="256.8388" spreadMethod="pad" gradientUnits="userSpaceOnUse" gradientTransform="translate(0 0)"><stop id="ewE9zgYZV2W77-fill-0" offset="0%" stop-color="#dccbde"/><stop id="ewE9zgYZV2W77-fill-1" offset="100%" stop-color="#b48db8"/></linearGradient><linearGradient id="ewE9zgYZV2W80-fill" x1="163.901499" y1="255.2058" x2="168.117399" y2="255.2058" spreadMethod="pad" gradientUnits="userSpaceOnUse" gradientTransform="translate(0 0)"><stop id="ewE9zgYZV2W80-fill-0" offset="0%" stop-color="#dccbde"/><stop id="ewE9zgYZV2W80-fill-1" offset="100%" stop-color="#b48db8"/></linearGradient><linearGradient id="ewE9zgYZV2W83-fill" x1="161.093799" y1="253.5735" x2="165.309999" y2="253.5735" spreadMethod="pad" gradientUnits="userSpaceOnUse" gradientTransform="translate(0 0)"><stop id="ewE9zgYZV2W83-fill-0" offset="0%" stop-color="#dccbde"/><stop id="ewE9zgYZV2W83-fill-1" offset="100%" stop-color="#b48db8"/></linearGradient><linearGradient id="ewE9zgYZV2W86-fill" x1="158.286599" y1="251.9408" x2="162.503099" y2="251.9408" spreadMethod="pad" gradientUnits="userSpaceOnUse" gradientTransform="translate(0 0)"><stop id="ewE9zgYZV2W86-fill-0" offset="0%" stop-color="#dccbde"/><stop id="ewE9zgYZV2W86-fill-1" offset="100%" stop-color="#b48db8"/></linearGradient><linearGradient id="ewE9zgYZV2W89-fill" x1="155.479199" y1="250.308" x2="159.695399" y2="250.308" spreadMethod="pad" gradientUnits="userSpaceOnUse" gradientTransform="translate(0 0)"><stop id="ewE9zgYZV2W89-fill-0" offset="0%" stop-color="#dccbde"/><stop id="ewE9zgYZV2W89-fill-1" offset="100%" stop-color="#b48db8"/></linearGradient><linearGradient id="ewE9zgYZV2W92-fill" x1="152.672599" y1="248.6756" x2="156.888199" y2="248.6756" spreadMethod="pad" gradientUnits="userSpaceOnUse" gradientTransform="translate(0 0)"><stop id="ewE9zgYZV2W92-fill-0" offset="0%" stop-color="#dccbde"/><stop id="ewE9zgYZV2W92-fill-1" offset="100%" stop-color="#b48db8"/></linearGradient><linearGradient id="ewE9zgYZV2W95-fill" x1="149.864099" y1="247.0426" x2="154.080999" y2="247.0426" spreadMethod="pad" gradientUnits="userSpaceOnUse" gradientTransform="translate(0 0)"><stop id="ewE9zgYZV2W95-fill-0" offset="0%" stop-color="#dccbde"/><stop id="ewE9zgYZV2W95-fill-1" offset="100%" stop-color="#b48db8"/></linearGradient><linearGradient id="ewE9zgYZV2W98-fill" x1="147.057699" y1="245.4103" x2="151.273299" y2="245.4103" spreadMethod="pad" gradientUnits="userSpaceOnUse" gradientTransform="translate(0 0)"><stop id="ewE9zgYZV2W98-fill-0" offset="0%" stop-color="#dccbde"/><stop id="ewE9zgYZV2W98-fill-1" offset="100%" stop-color="#b48db8"/></linearGradient><linearGradient id="ewE9zgYZV2W99-fill" x1="175.130699" y1="262.553" x2="182.153499" y2="262.553" spreadMethod="pad" gradientUnits="userSpaceOnUse" gradientTransform="translate(0 0)"><stop id="ewE9zgYZV2W99-fill-0" offset="0%" stop-color="#dccbde"/><stop id="ewE9zgYZV2W99-fill-1" offset="100%" stop-color="#b48db8"/></linearGradient><linearGradient id="ewE9zgYZV2W100-fill" x1="139.159599" y1="243.8708" x2="144.745699" y2="243.8708" spreadMethod="pad" gradientUnits="userSpaceOnUse" gradientTransform="translate(0 0)"><stop id="ewE9zgYZV2W100-fill-0" offset="0%" stop-color="#dccbde"/><stop id="ewE9zgYZV2W100-fill-1" offset="100%" stop-color="#b48db8"/></linearGradient><linearGradient id="ewE9zgYZV2W103-fill" x1="175.676299" y1="264.6971" x2="179.870299" y2="264.6971" spreadMethod="pad" gradientUnits="userSpaceOnUse" gradientTransform="translate(0 0)"><stop id="ewE9zgYZV2W103-fill-0" offset="0%" stop-color="#dccbde"/><stop id="ewE9zgYZV2W103-fill-1" offset="100%" stop-color="#b48db8"/></linearGradient><linearGradient id="ewE9zgYZV2W104-fill" x1="136.876699" y1="245.3777" x2="143.079099" y2="245.3777" spreadMethod="pad" gradientUnits="userSpaceOnUse" gradientTransform="translate(0 0)"><stop id="ewE9zgYZV2W104-fill-0" offset="0%" stop-color="#dccbde"/><stop id="ewE9zgYZV2W104-fill-1" offset="100%" stop-color="#b48db8"/></linearGradient><linearGradient id="ewE9zgYZV2W107-fill" x1="165.771099" y1="261.6047" x2="169.987799" y2="261.6047" spreadMethod="pad" gradientUnits="userSpaceOnUse" gradientTransform="translate(0 0)"><stop id="ewE9zgYZV2W107-fill-0" offset="0%" stop-color="#dccbde"/><stop id="ewE9zgYZV2W107-fill-1" offset="100%" stop-color="#b48db8"/></linearGradient><linearGradient id="ewE9zgYZV2W110-fill" x1="162.731299" y1="259.8657" x2="166.947499" y2="259.8657" spreadMethod="pad" gradientUnits="userSpaceOnUse" gradientTransform="translate(0 0)"><stop id="ewE9zgYZV2W110-fill-0" offset="0%" stop-color="#dccbde"/><stop id="ewE9zgYZV2W110-fill-1" offset="100%" stop-color="#b48db8"/></linearGradient><linearGradient id="ewE9zgYZV2W113-fill" x1="159.691999" y1="258.1269" x2="163.908399" y2="258.1269" spreadMethod="pad" gradientUnits="userSpaceOnUse" gradientTransform="translate(0 0)"><stop id="ewE9zgYZV2W113-fill-0" offset="0%" stop-color="#dccbde"/><stop id="ewE9zgYZV2W113-fill-1" offset="100%" stop-color="#b48db8"/></linearGradient><linearGradient id="ewE9zgYZV2W116-fill" x1="156.652199" y1="256.3881" x2="160.868399" y2="256.3881" spreadMethod="pad" gradientUnits="userSpaceOnUse" gradientTransform="translate(0 0)"><stop id="ewE9zgYZV2W116-fill-0" offset="0%" stop-color="#dccbde"/><stop id="ewE9zgYZV2W116-fill-1" offset="100%" stop-color="#b48db8"/></linearGradient><linearGradient id="ewE9zgYZV2W119-fill" x1="153.612399" y1="254.6494" x2="157.829099" y2="254.6494" spreadMethod="pad" gradientUnits="userSpaceOnUse" gradientTransform="translate(0 0)"><stop id="ewE9zgYZV2W119-fill-0" offset="0%" stop-color="#dccbde"/><stop id="ewE9zgYZV2W119-fill-1" offset="100%" stop-color="#b48db8"/></linearGradient><linearGradient id="ewE9zgYZV2W122-fill" x1="150.572599" y1="252.9104" x2="154.789299" y2="252.9104" spreadMethod="pad" gradientUnits="userSpaceOnUse" gradientTransform="translate(0 0)"><stop id="ewE9zgYZV2W122-fill-0" offset="0%" stop-color="#dccbde"/><stop id="ewE9zgYZV2W122-fill-1" offset="100%" stop-color="#b48db8"/></linearGradient><linearGradient id="ewE9zgYZV2W125-fill" x1="147.532999" y1="251.1714" x2="151.749699" y2="251.1714" spreadMethod="pad" gradientUnits="userSpaceOnUse" gradientTransform="translate(0 0)"><stop id="ewE9zgYZV2W125-fill-0" offset="0%" stop-color="#dccbde"/><stop id="ewE9zgYZV2W125-fill-1" offset="100%" stop-color="#b48db8"/></linearGradient><linearGradient id="ewE9zgYZV2W128-fill" x1="144.493499" y1="249.4324" x2="148.709399" y2="249.4324" spreadMethod="pad" gradientUnits="userSpaceOnUse" gradientTransform="translate(0 0)"><stop id="ewE9zgYZV2W128-fill-0" offset="0%" stop-color="#dccbde"/><stop id="ewE9zgYZV2W128-fill-1" offset="100%" stop-color="#b48db8"/></linearGradient><linearGradient id="ewE9zgYZV2W131-fill" x1="141.453399" y1="247.6938" x2="145.670299" y2="247.6938" spreadMethod="pad" gradientUnits="userSpaceOnUse" gradientTransform="translate(0 0)"><stop id="ewE9zgYZV2W131-fill-0" offset="0%" stop-color="#dccbde"/><stop id="ewE9zgYZV2W131-fill-1" offset="100%" stop-color="#b48db8"/></linearGradient><linearGradient id="ewE9zgYZV2W134-fill" x1="168.783899" y1="263.3568" x2="173.000399" y2="263.3568" spreadMethod="pad" gradientUnits="userSpaceOnUse" gradientTransform="translate(0 0)"><stop id="ewE9zgYZV2W134-fill-0" offset="0%" stop-color="#dccbde"/><stop id="ewE9zgYZV2W134-fill-1" offset="100%" stop-color="#b48db8"/></linearGradient><linearGradient id="ewE9zgYZV2W135-fill" x1="171.541199" y1="265.4929" x2="177.588099" y2="265.4929" spreadMethod="pad" gradientUnits="userSpaceOnUse" gradientTransform="translate(0 0)"><stop id="ewE9zgYZV2W135-fill-0" offset="0%" stop-color="#dccbde"/><stop id="ewE9zgYZV2W135-fill-1" offset="100%" stop-color="#b48db8"/></linearGradient><linearGradient id="ewE9zgYZV2W136-fill" x1="134.593999" y1="246.944" x2="141.617599" y2="246.944" spreadMethod="pad" gradientUnits="userSpaceOnUse" gradientTransform="translate(0 0)"><stop id="ewE9zgYZV2W136-fill-0" offset="0%" stop-color="#dccbde"/><stop id="ewE9zgYZV2W136-fill-1" offset="100%" stop-color="#b48db8"/></linearGradient><linearGradient id="ewE9zgYZV2W137-fill" x1="140.208299" y1="249.3933" x2="144.425299" y2="249.3933" spreadMethod="pad" gradientUnits="userSpaceOnUse" gradientTransform="translate(0 0)"><stop id="ewE9zgYZV2W137-fill-0" offset="0%" stop-color="#dccbde"/><stop id="ewE9zgYZV2W137-fill-1" offset="100%" stop-color="#b48db8"/></linearGradient><linearGradient id="ewE9zgYZV2W140-fill" x1="165.474199" y1="264.087" x2="169.690099" y2="264.087" spreadMethod="pad" gradientUnits="userSpaceOnUse" gradientTransform="translate(0 0)"><stop id="ewE9zgYZV2W140-fill-0" offset="0%" stop-color="#dccbde"/><stop id="ewE9zgYZV2W140-fill-1" offset="100%" stop-color="#b48db8"/></linearGradient><linearGradient id="ewE9zgYZV2W143-fill" x1="162.666699" y1="262.4524" x2="166.883199" y2="262.4524" spreadMethod="pad" gradientUnits="userSpaceOnUse" gradientTransform="translate(0 0)"><stop id="ewE9zgYZV2W143-fill-0" offset="0%" stop-color="#dccbde"/><stop id="ewE9zgYZV2W143-fill-1" offset="100%" stop-color="#b48db8"/></linearGradient><linearGradient id="ewE9zgYZV2W146-fill" x1="159.859599" y1="260.8174" x2="164.075699" y2="260.8174" spreadMethod="pad" gradientUnits="userSpaceOnUse" gradientTransform="translate(0 0)"><stop id="ewE9zgYZV2W146-fill-0" offset="0%" stop-color="#dccbde"/><stop id="ewE9zgYZV2W146-fill-1" offset="100%" stop-color="#b48db8"/></linearGradient><linearGradient id="ewE9zgYZV2W149-fill" x1="157.051899" y1="259.1829" x2="161.268799" y2="259.1829" spreadMethod="pad" gradientUnits="userSpaceOnUse" gradientTransform="translate(0 0)"><stop id="ewE9zgYZV2W149-fill-0" offset="0%" stop-color="#dccbde"/><stop id="ewE9zgYZV2W149-fill-1" offset="100%" stop-color="#b48db8"/></linearGradient><linearGradient id="ewE9zgYZV2W152-fill" x1="154.244699" y1="257.5481" x2="158.461399" y2="257.5481" spreadMethod="pad" gradientUnits="userSpaceOnUse" gradientTransform="translate(0 0)"><stop id="ewE9zgYZV2W152-fill-0" offset="0%" stop-color="#dccbde"/><stop id="ewE9zgYZV2W152-fill-1" offset="100%" stop-color="#b48db8"/></linearGradient><linearGradient id="ewE9zgYZV2W155-fill" x1="151.437499" y1="255.9133" x2="155.653999" y2="255.9133" spreadMethod="pad" gradientUnits="userSpaceOnUse" gradientTransform="translate(0 0)"><stop id="ewE9zgYZV2W155-fill-0" offset="0%" stop-color="#dccbde"/><stop id="ewE9zgYZV2W155-fill-1" offset="100%" stop-color="#b48db8"/></linearGradient><linearGradient id="ewE9zgYZV2W158-fill" x1="148.630399" y1="254.2785" x2="152.846799" y2="254.2785" spreadMethod="pad" gradientUnits="userSpaceOnUse" gradientTransform="translate(0 0)"><stop id="ewE9zgYZV2W158-fill-0" offset="0%" stop-color="#dccbde"/><stop id="ewE9zgYZV2W158-fill-1" offset="100%" stop-color="#b48db8"/></linearGradient><linearGradient id="ewE9zgYZV2W161-fill" x1="145.823199" y1="252.6441" x2="150.039599" y2="252.6441" spreadMethod="pad" gradientUnits="userSpaceOnUse" gradientTransform="translate(0 0)"><stop id="ewE9zgYZV2W161-fill-0" offset="0%" stop-color="#dccbde"/><stop id="ewE9zgYZV2W161-fill-1" offset="100%" stop-color="#b48db8"/></linearGradient><linearGradient id="ewE9zgYZV2W164-fill" x1="143.015999" y1="251.009" x2="147.231899" y2="251.009" spreadMethod="pad" gradientUnits="userSpaceOnUse" gradientTransform="translate(0 0)"><stop id="ewE9zgYZV2W164-fill-0" offset="0%" stop-color="#dccbde"/><stop id="ewE9zgYZV2W164-fill-1" offset="100%" stop-color="#b48db8"/></linearGradient><linearGradient id="ewE9zgYZV2W165-fill" x1="168.486699" y1="266.5959" x2="175.304899" y2="266.5959" spreadMethod="pad" gradientUnits="userSpaceOnUse" gradientTransform="translate(0 0)"><stop id="ewE9zgYZV2W165-fill-0" offset="0%" stop-color="#dccbde"/><stop id="ewE9zgYZV2W165-fill-1" offset="100%" stop-color="#b48db8"/></linearGradient><linearGradient id="ewE9zgYZV2W168-fill" x1="132.310799" y1="247.4556" x2="136.527199" y2="247.4556" spreadMethod="pad" gradientUnits="userSpaceOnUse" gradientTransform="translate(0 0)"><stop id="ewE9zgYZV2W168-fill-0" offset="0%" stop-color="#dccbde"/><stop id="ewE9zgYZV2W168-fill-1" offset="100%" stop-color="#b48db8"/></linearGradient><linearGradient id="ewE9zgYZV2W171-fill" x1="135.118499" y1="249.0885" x2="139.334399" y2="249.0885" spreadMethod="pad" gradientUnits="userSpaceOnUse" gradientTransform="translate(0 0)"><stop id="ewE9zgYZV2W171-fill-0" offset="0%" stop-color="#dccbde"/><stop id="ewE9zgYZV2W171-fill-1" offset="100%" stop-color="#b48db8"/></linearGradient><linearGradient id="ewE9zgYZV2W174-fill" x1="137.925599" y1="250.7209" x2="142.141499" y2="250.7209" spreadMethod="pad" gradientUnits="userSpaceOnUse" gradientTransform="translate(0 0)"><stop id="ewE9zgYZV2W174-fill-0" offset="0%" stop-color="#dccbde"/><stop id="ewE9zgYZV2W174-fill-1" offset="100%" stop-color="#b48db8"/></linearGradient><linearGradient id="ewE9zgYZV2W177-fill" x1="140.678999" y1="252.3472" x2="144.895199" y2="252.3472" spreadMethod="pad" gradientUnits="userSpaceOnUse" gradientTransform="translate(0 0)"><stop id="ewE9zgYZV2W177-fill-0" offset="0%" stop-color="#dccbde"/><stop id="ewE9zgYZV2W177-fill-1" offset="100%" stop-color="#b48db8"/></linearGradient><linearGradient id="ewE9zgYZV2W178-fill" x1="143.539999" y1="258.8844" x2="164.600999" y2="258.8844" spreadMethod="pad" gradientUnits="userSpaceOnUse" gradientTransform="translate(0 0)"><stop id="ewE9zgYZV2W178-fill-0" offset="0%" stop-color="#dccbde"/><stop id="ewE9zgYZV2W178-fill-1" offset="100%" stop-color="#b48db8"/></linearGradient><linearGradient id="ewE9zgYZV2W179-fill" x1="163.191699" y1="265.6824" x2="166.488399" y2="265.6824" spreadMethod="pad" gradientUnits="userSpaceOnUse" gradientTransform="translate(0 0)"><stop id="ewE9zgYZV2W179-fill-0" offset="0%" stop-color="#dccbde"/><stop id="ewE9zgYZV2W179-fill-1" offset="100%" stop-color="#b48db8"/></linearGradient><linearGradient id="ewE9zgYZV2W180-fill" x1="165.998899" y1="267.0478" x2="170.215299" y2="267.0478" spreadMethod="pad" gradientUnits="userSpaceOnUse" gradientTransform="translate(0 0)"><stop id="ewE9zgYZV2W180-fill-0" offset="0%" stop-color="#dccbde"/><stop id="ewE9zgYZV2W180-fill-1" offset="100%" stop-color="#b48db8"/></linearGradient><linearGradient id="ewE9zgYZV2W181-fill" x1="168.806099" y1="268.9475" x2="172.102999" y2="268.9475" spreadMethod="pad" gradientUnits="userSpaceOnUse" gradientTransform="translate(0 0)"><stop id="ewE9zgYZV2W181-fill-0" offset="0%" stop-color="#dccbde"/><stop id="ewE9zgYZV2W181-fill-1" offset="100%" stop-color="#b48db8"/></linearGradient><linearGradient id="ewE9zgYZV2W184-fill" x1="172.716299" y1="262.9777" x2="176.911099" y2="262.9777" spreadMethod="pad" gradientUnits="userSpaceOnUse" gradientTransform="translate(0 0)"><stop id="ewE9zgYZV2W184-fill-0" offset="0%" stop-color="#dccbde"/><stop id="ewE9zgYZV2W184-fill-1" offset="100%" stop-color="#b48db8"/></linearGradient><linearGradient id="ewE9zgYZV2W187-fill" x1="169.756499" y1="261.2585" x2="173.951299" y2="261.2585" spreadMethod="pad" gradientUnits="userSpaceOnUse" gradientTransform="translate(0 0)"><stop id="ewE9zgYZV2W187-fill-0" offset="0%" stop-color="#dccbde"/><stop id="ewE9zgYZV2W187-fill-1" offset="100%" stop-color="#b48db8"/></linearGradient><linearGradient id="ewE9zgYZV2W190-fill" x1="166.796699" y1="259.5391" x2="170.991499" y2="259.5391" spreadMethod="pad" gradientUnits="userSpaceOnUse" gradientTransform="translate(0 0)"><stop id="ewE9zgYZV2W190-fill-0" offset="0%" stop-color="#dccbde"/><stop id="ewE9zgYZV2W190-fill-1" offset="100%" stop-color="#b48db8"/></linearGradient><linearGradient id="ewE9zgYZV2W193-fill" x1="163.836999" y1="257.8195" x2="168.031699" y2="257.8195" spreadMethod="pad" gradientUnits="userSpaceOnUse" gradientTransform="translate(0 0)"><stop id="ewE9zgYZV2W193-fill-0" offset="0%" stop-color="#dccbde"/><stop id="ewE9zgYZV2W193-fill-1" offset="100%" stop-color="#b48db8"/></linearGradient><linearGradient id="ewE9zgYZV2W196-fill" x1="160.877199" y1="256.1003" x2="165.071399" y2="256.1003" spreadMethod="pad" gradientUnits="userSpaceOnUse" gradientTransform="translate(0 0)"><stop id="ewE9zgYZV2W196-fill-0" offset="0%" stop-color="#dccbde"/><stop id="ewE9zgYZV2W196-fill-1" offset="100%" stop-color="#b48db8"/></linearGradient><linearGradient id="ewE9zgYZV2W199-fill" x1="157.917399" y1="254.381" x2="162.111899" y2="254.381" spreadMethod="pad" gradientUnits="userSpaceOnUse" gradientTransform="translate(0 0)"><stop id="ewE9zgYZV2W199-fill-0" offset="0%" stop-color="#dccbde"/><stop id="ewE9zgYZV2W199-fill-1" offset="100%" stop-color="#b48db8"/></linearGradient><linearGradient id="ewE9zgYZV2W202-fill" x1="154.957399" y1="252.6617" x2="159.152099" y2="252.6617" spreadMethod="pad" gradientUnits="userSpaceOnUse" gradientTransform="translate(0 0)"><stop id="ewE9zgYZV2W202-fill-0" offset="0%" stop-color="#dccbde"/><stop id="ewE9zgYZV2W202-fill-1" offset="100%" stop-color="#b48db8"/></linearGradient><linearGradient id="ewE9zgYZV2W205-fill" x1="151.997599" y1="250.9426" x2="156.192299" y2="250.9426" spreadMethod="pad" gradientUnits="userSpaceOnUse" gradientTransform="translate(0 0)"><stop id="ewE9zgYZV2W205-fill-0" offset="0%" stop-color="#dccbde"/><stop id="ewE9zgYZV2W205-fill-1" offset="100%" stop-color="#b48db8"/></linearGradient><linearGradient id="ewE9zgYZV2W208-fill" x1="149.037799" y1="249.2231" x2="153.232499" y2="249.2231" spreadMethod="pad" gradientUnits="userSpaceOnUse" gradientTransform="translate(0 0)"><stop id="ewE9zgYZV2W208-fill-0" offset="0%" stop-color="#dccbde"/><stop id="ewE9zgYZV2W208-fill-1" offset="100%" stop-color="#b48db8"/></linearGradient><linearGradient id="ewE9zgYZV2W211-fill" x1="146.077999" y1="247.5037" x2="150.272499" y2="247.5037" spreadMethod="pad" gradientUnits="userSpaceOnUse" gradientTransform="translate(0 0)"><stop id="ewE9zgYZV2W211-fill-0" offset="0%" stop-color="#dccbde"/><stop id="ewE9zgYZV2W211-fill-1" offset="100%" stop-color="#b48db8"/></linearGradient><linearGradient id="ewE9zgYZV2W214-fill" x1="143.118199" y1="245.7845" x2="147.313199" y2="245.7845" spreadMethod="pad" gradientUnits="userSpaceOnUse" gradientTransform="translate(0 0)"><stop id="ewE9zgYZV2W214-fill-0" offset="0%" stop-color="#dccbde"/><stop id="ewE9zgYZV2W214-fill-1" offset="100%" stop-color="#b48db8"/></linearGradient><linearGradient id="ewE9zgYZV2W217-fill" x1="177.502399" y1="260.5797" x2="180.947599" y2="260.5797" spreadMethod="pad" gradientUnits="userSpaceOnUse" gradientTransform="translate(0 0)"><stop id="ewE9zgYZV2W217-fill-0" offset="0%" stop-color="#dccbde"/><stop id="ewE9zgYZV2W217-fill-1" offset="100%" stop-color="#b48db8"/></linearGradient><linearGradient id="ewE9zgYZV2W220-fill" x1="174.695299" y1="258.9447" x2="178.140399" y2="258.9447" spreadMethod="pad" gradientUnits="userSpaceOnUse" gradientTransform="translate(0 0)"><stop id="ewE9zgYZV2W220-fill-0" offset="0%" stop-color="#dccbde"/><stop id="ewE9zgYZV2W220-fill-1" offset="100%" stop-color="#b48db8"/></linearGradient><linearGradient id="ewE9zgYZV2W223-fill" x1="171.887599" y1="257.31" x2="175.332699" y2="257.31" spreadMethod="pad" gradientUnits="userSpaceOnUse" gradientTransform="translate(0 0)"><stop id="ewE9zgYZV2W223-fill-0" offset="0%" stop-color="#dccbde"/><stop id="ewE9zgYZV2W223-fill-1" offset="100%" stop-color="#b48db8"/></linearGradient><linearGradient id="ewE9zgYZV2W226-fill" x1="169.079899" y1="255.6752" x2="172.524999" y2="255.6752" spreadMethod="pad" gradientUnits="userSpaceOnUse" gradientTransform="translate(0 0)"><stop id="ewE9zgYZV2W226-fill-0" offset="0%" stop-color="#dccbde"/><stop id="ewE9zgYZV2W226-fill-1" offset="100%" stop-color="#b48db8"/></linearGradient><linearGradient id="ewE9zgYZV2W229-fill" x1="166.272699" y1="254.0405" x2="169.718599" y2="254.0405" spreadMethod="pad" gradientUnits="userSpaceOnUse" gradientTransform="translate(0 0)"><stop id="ewE9zgYZV2W229-fill-0" offset="0%" stop-color="#dccbde"/><stop id="ewE9zgYZV2W229-fill-1" offset="100%" stop-color="#b48db8"/></linearGradient><linearGradient id="ewE9zgYZV2W232-fill" x1="163.465599" y1="252.4055" x2="166.911199" y2="252.4055" spreadMethod="pad" gradientUnits="userSpaceOnUse" gradientTransform="translate(0 0)"><stop id="ewE9zgYZV2W232-fill-0" offset="0%" stop-color="#dccbde"/><stop id="ewE9zgYZV2W232-fill-1" offset="100%" stop-color="#b48db8"/></linearGradient><linearGradient id="ewE9zgYZV2W235-fill" x1="160.658399" y1="250.7711" x2="164.103799" y2="250.7711" spreadMethod="pad" gradientUnits="userSpaceOnUse" gradientTransform="translate(0 0)"><stop id="ewE9zgYZV2W235-fill-0" offset="0%" stop-color="#dccbde"/><stop id="ewE9zgYZV2W235-fill-1" offset="100%" stop-color="#b48db8"/></linearGradient><linearGradient id="ewE9zgYZV2W238-fill" x1="157.850699" y1="249.1361" x2="161.296299" y2="249.1361" spreadMethod="pad" gradientUnits="userSpaceOnUse" gradientTransform="translate(0 0)"><stop id="ewE9zgYZV2W238-fill-0" offset="0%" stop-color="#dccbde"/><stop id="ewE9zgYZV2W238-fill-1" offset="100%" stop-color="#b48db8"/></linearGradient><linearGradient id="ewE9zgYZV2W241-fill" x1="155.043499" y1="247.5016" x2="158.489399" y2="247.5016" spreadMethod="pad" gradientUnits="userSpaceOnUse" gradientTransform="translate(0 0)"><stop id="ewE9zgYZV2W241-fill-0" offset="0%" stop-color="#dccbde"/><stop id="ewE9zgYZV2W241-fill-1" offset="100%" stop-color="#b48db8"/></linearGradient><linearGradient id="ewE9zgYZV2W244-fill" x1="152.236299" y1="245.8665" x2="155.682299" y2="245.8665" spreadMethod="pad" gradientUnits="userSpaceOnUse" gradientTransform="translate(0 0)"><stop id="ewE9zgYZV2W244-fill-0" offset="0%" stop-color="#dccbde"/><stop id="ewE9zgYZV2W244-fill-1" offset="100%" stop-color="#b48db8"/></linearGradient><linearGradient id="ewE9zgYZV2W247-fill" x1="149.429399" y1="244.2318" x2="152.874599" y2="244.2318" spreadMethod="pad" gradientUnits="userSpaceOnUse" gradientTransform="translate(0 0)"><stop id="ewE9zgYZV2W247-fill-0" offset="0%" stop-color="#dccbde"/><stop id="ewE9zgYZV2W247-fill-1" offset="100%" stop-color="#b48db8"/></linearGradient><linearGradient id="ewE9zgYZV2W297-fill" x1="179.314099" y1="199.1699" x2="182.207899" y2="220.2704" spreadMethod="pad" gradientUnits="userSpaceOnUse" gradientTransform="translate(0 0)"><stop id="ewE9zgYZV2W297-fill-0" offset="0%" stop-color="#fff"/><stop id="ewE9zgYZV2W297-fill-1" offset="15.4%" stop-color="#d0c4d7"/><stop id="ewE9zgYZV2W297-fill-2" offset="31.88%" stop-color="#a38cb1"/><stop id="ewE9zgYZV2W297-fill-3" offset="47.92%" stop-color="#7e5d92"/><stop id="ewE9zgYZV2W297-fill-4" offset="63.12%" stop-color="#623979"/><stop id="ewE9zgYZV2W297-fill-5" offset="77.27%" stop-color="#4d1f67"/><stop id="ewE9zgYZV2W297-fill-6" offset="89.97%" stop-color="#400f5d"/><stop id="ewE9zgYZV2W297-fill-7" offset="100%" stop-color="#3c0a59"/></linearGradient><linearGradient id="ewE9zgYZV2W344-fill" x1="241.212899" y1="235.0445" x2="244.106699" y2="256.145" spreadMethod="pad" gradientUnits="userSpaceOnUse" gradientTransform="translate(0 0)"><stop id="ewE9zgYZV2W344-fill-0" offset="0%" stop-color="#fff"/><stop id="ewE9zgYZV2W344-fill-1" offset="15.4%" stop-color="#d0c4d7"/><stop id="ewE9zgYZV2W344-fill-2" offset="31.88%" stop-color="#a38cb1"/><stop id="ewE9zgYZV2W344-fill-3" offset="47.92%" stop-color="#7e5d92"/><stop id="ewE9zgYZV2W344-fill-4" offset="63.12%" stop-color="#623979"/><stop id="ewE9zgYZV2W344-fill-5" offset="77.27%" stop-color="#4d1f67"/><stop id="ewE9zgYZV2W344-fill-6" offset="89.97%" stop-color="#400f5d"/><stop id="ewE9zgYZV2W344-fill-7" offset="100%" stop-color="#3c0a59"/></linearGradient></defs><g><g><g><g><g><g><g><g><polygon points="208.9,392.25 201.91,388.07 201.91,316.93 208.9,321.12" fill="#8050f2"/></g></g><g><g><polygon points="87.29,321.64 80.3,317.45 80.3,243.78 87.29,247.97" fill="#8050f2"/></g></g><g><g><polygon points="87.29,321.64 165.96,278.03 128.68,225.05 87.29,247.97" fill="#623ca4"/></g></g><polygon points="281.03,348.71 208.9,392.25 208.9,321.12 281.03,277.57" fill="#623ca4"/><g><polygon points="208.75,321.46 77.12,244.4 77.12,240.04 283.34,272.26 283.34,276.62" fill="#a184e9"/><polygon points="208.75,317.1 77.12,240.04 152.69,193.95 283.34,272.26" fill="#99aff0"/><polygon points="208.75,317.1 77.12,240.04 152.69,193.95 283.34,272.26" fill="#c7b2fd"/></g></g><g><path d="M131.47,249.52l38.55,22.42c.59.34,1.47.38,1.98.08l15.48-7.41c.51-.29,1.02-6.76.35-4.67l-41.89-17.47c-.59-.34-1.47-.38-1.98-.08l-12.63,4.91c-.51.3-.45,1.88.14,2.22Z" fill="#7c4f84"/><g><path d="M131.47,248.46l38.55,22.42c.59.34,1.47.38,1.98.08c0,0,17.55-10.45,16.07-11.42l-38.79-22.01c-.59-.34-4.81,2.14-5.32,2.43l-12.63,7.35c-.51.29-.45.8.14,1.15Z" fill="#b48db8"/><polygon points="146.07,242.47 143.81,241.15 145,240.46 147.26,241.78" fill="#986c9e"/><polygon points="148.88,244.1 146.62,242.79 147.81,242.1 150.07,243.41" fill="#986c9e"/><polygon points="143.7,243.85 141.44,242.53 143.4,241.4 145.66,242.71" fill="#986c9e"/><polygon points="146.51,245.48 144.25,244.17 146.21,243.03 148.47,244.34" fill="#986c9e"/><polygon points="182.15,263.93 180.2,265.07 175.13,262.12 175.13,261.65 182.15,263.46" fill="#986c9e"/><polygon points="144.75,244.83 142.79,245.97 139.16,243.86 141.12,242.72" fill="#986c9e"/><polygon points="141.12,247.66 136.88,245.19 138.83,244.05 143.08,246.52" fill="#986c9e"/><polygon points="165.02,261.56 162.76,260.24 164.72,259.1 166.98,260.42" fill="#986c9e"/><polygon points="177.59,266.59 175.63,267.73 171.54,265.35 177.59,266.11" fill="#986c9e"/><polygon points="139.66,249.46 134.59,246.52 136.55,245.38 141.62,248.32" fill="#986c9e"/><polygon points="142.47,251.1 140.21,249.78 142.17,248.64 144.43,249.96" fill="#986c9e"/><polygon points="164.93,264.16 162.67,262.84 164.62,261.7 166.88,263.02" fill="#986c9e"/><polygon points="173.35,269.05 168.49,266.23 168.49,265.75 175.3,267.44 175.3,267.92" fill="#986c9e"/><polygon points="142.99,254.06 140.73,252.74 142.69,251.6 144.95,252.92" fill="#986c9e"/><polygon points="164.6,264.35 162.64,265.48 143.54,254.37 143.54,253.9 164.6,263.87" fill="#986c9e"/><polygon points="165.45,267.12 163.19,265.8 163.19,265.33 166.49,266.04 166.49,266.51" fill="#986c9e"/><polygon points="168.26,268.75 166,267.44 166,266.96 170.22,267.14 170.22,267.61" fill="#986c9e"/><polygon points="171.07,270.38 168.81,269.07 168.81,268.59 172.1,269.3 172.1,269.78" fill="#986c9e"/><rect width="1.39" height="0.52" rx="0" ry="0" transform="translate(143.81 240.63)" fill="#986c9e"/><rect width="0.9" height="0.4" rx="0" ry="0" transform="translate(146.36 241.3)" fill="#986c9e"/><rect width="1.51" height="0.44" rx="0" ry="0" transform="translate(148.56 242.93)" fill="#986c9e"/><rect width="1.54" height="0.48" rx="0" ry="0" transform="translate(146.62 242.31)" fill="#986c9e"/><rect width="1.97" height="0.49" rx="0" ry="0" transform="translate(144.25 243.69)" fill="#986c9e"/><rect width="1.41" height="0.5" rx="0" ry="0" transform="translate(147.06 243.85)" fill="#986c9e"/><rect width="1.61" height="0.48" rx="0" ry="0" transform="translate(141.49 241.99)" fill="#986c9e"/><rect width="2.12" height="0.5" rx="0" ry="0" transform="translate(143.54 242.21)" fill="#986c9e"/><rect width="1.77" height="0.48" rx="0" ry="0" transform="translate(139.16 243.37)" fill="#986c9e"/><rect width="3.77" height="0.49" rx="0" ry="0" transform="translate(140.97 244.35)" fill="#986c9e"/><rect width="1.42" height="0.46" rx="0" ry="0" transform="translate(136.88 244.71)" fill="#986c9e"/><rect width="3.1" height="0.49" rx="0" ry="0" transform="translate(139.98 246.03)" fill="#986c9e"/><rect width="4.2" height="0.46" rx="0" ry="0" transform="translate(137.42 247.86)" fill="#986c9e"/><rect width="1.2" height="0.49" rx="0" ry="0" transform="translate(134.59 246.03)" fill="#986c9e"/><rect width="2.47" height="0.46" rx="0" ry="0" transform="translate(141.95 249.49)" fill="#986c9e"/><rect width="1.53" height="0.49" rx="0" ry="0" transform="translate(140.21 249.29)" fill="#986c9e"/><polygon points="146.07,241.99 143.81,240.68 145,239.99 147.26,241.3" fill="url(#ewE9zgYZV2W62-fill)"/><polygon points="148.88,243.62 146.62,242.31 147.81,241.62 150.07,242.93" fill="url(#ewE9zgYZV2W63-fill)"/><g><polygon points="182.57,263.69 180.31,262.38 180.31,261.9 183.75,262.53 183.75,263" fill="#986c9e"/><polygon points="182.57,263.22 180.31,261.9 181.5,261.21 183.75,262.53" fill="url(#ewE9zgYZV2W66-fill)"/></g><polygon points="143.7,243.37 141.44,242.06 143.4,240.92 145.66,242.23" fill="url(#ewE9zgYZV2W67-fill)"/><polygon points="146.51,245 144.25,243.69 146.21,242.55 148.47,243.87" fill="url(#ewE9zgYZV2W68-fill)"/><g><polygon points="174.58,261.81 172.32,260.49 172.32,260.02 176.54,260.19 176.54,260.67" fill="#986c9e"/><polygon points="174.58,261.33 172.32,260.02 174.28,258.88 176.54,260.19" fill="url(#ewE9zgYZV2W71-fill)"/></g><g><polygon points="171.77,260.17 169.52,258.86 169.52,258.38 173.73,258.56 173.73,259.04" fill="#986c9e"/><polygon points="171.77,259.7 169.52,258.38 171.47,257.24 173.73,258.56" fill="url(#ewE9zgYZV2W74-fill)"/></g><g><polygon points="168.97,258.54 166.71,257.23 166.71,256.75 170.92,256.93 170.92,257.4" fill="#986c9e"/><polygon points="168.97,258.07 166.71,256.75 168.66,255.61 170.92,256.93" fill="url(#ewE9zgYZV2W77-fill)"/></g><g><polygon points="166.16,256.91 163.9,255.59 163.9,255.12 168.12,255.29 168.12,255.77" fill="#986c9e"/><polygon points="166.16,256.43 163.9,255.12 165.86,253.98 168.12,255.29" fill="url(#ewE9zgYZV2W80-fill)"/></g><g><polygon points="163.35,255.28 161.09,253.96 161.09,253.49 165.31,253.66 165.31,254.14" fill="#986c9e"/><polygon points="163.35,254.8 161.09,253.49 163.05,252.35 165.31,253.66" fill="url(#ewE9zgYZV2W83-fill)"/></g><g><polygon points="160.55,253.64 158.29,252.33 158.29,251.85 162.5,252.03 162.5,252.51" fill="#986c9e"/><polygon points="160.55,253.17 158.29,251.85 160.24,250.71 162.5,252.03" fill="url(#ewE9zgYZV2W86-fill)"/></g><g><polygon points="157.74,252.01 155.48,250.7 155.48,250.22 159.7,250.4 159.7,250.87" fill="#986c9e"/><polygon points="157.74,251.53 155.48,250.22 157.44,249.08 159.7,250.4" fill="url(#ewE9zgYZV2W89-fill)"/></g><g><polygon points="154.93,250.38 152.67,249.06 152.67,248.59 156.89,248.76 156.89,249.24" fill="#986c9e"/><polygon points="154.93,249.9 152.67,248.59 154.63,247.45 156.89,248.76" fill="url(#ewE9zgYZV2W92-fill)"/></g><g><polygon points="152.12,248.75 149.86,247.43 149.86,246.96 154.08,247.13 154.08,247.61" fill="#986c9e"/><polygon points="152.12,248.27 149.86,246.96 151.82,245.82 154.08,247.13" fill="url(#ewE9zgYZV2W95-fill)"/></g><g><polygon points="149.32,247.11 147.06,245.8 147.06,245.32 151.27,245.5 151.27,245.97" fill="#986c9e"/><polygon points="149.32,246.64 147.06,245.32 149.01,244.18 151.27,245.5" fill="url(#ewE9zgYZV2W98-fill)"/></g><polygon points="182.15,263.46 180.2,264.6 175.13,261.65 177.09,260.51" fill="url(#ewE9zgYZV2W99-fill)"/><polygon points="144.75,244.36 142.79,245.5 139.16,243.38 141.12,242.25" fill="url(#ewE9zgYZV2W100-fill)"/><g><polygon points="177.91,265.92 175.65,264.61 175.65,265.09 177.91,266.4 179.87,265.26 179.87,264.79" fill="#986c9e"/><path d="M179.87,264.79l-2.26-1.31-1.93,1.13c-.02.01,2.24,1.33,2.24,1.33l1.95-1.15Z" fill="url(#ewE9zgYZV2W103-fill)"/></g><polygon points="141.12,247.18 136.88,244.71 138.83,243.57 143.08,246.04" fill="url(#ewE9zgYZV2W104-fill)"/><g><polygon points="168.03,262.83 165.77,261.52 165.77,261.99 168.03,263.31 169.99,262.17 169.99,261.69" fill="#986c9e"/><polygon points="169.99,261.69 167.73,260.38 165.77,261.52 168.03,262.83" fill="url(#ewE9zgYZV2W107-fill)"/></g><g><polygon points="164.99,261.09 162.73,259.78 162.73,260.25 164.99,261.57 166.95,260.43 166.95,259.95" fill="#986c9e"/><polygon points="166.95,259.95 164.69,258.64 162.73,259.78 164.99,261.09" fill="url(#ewE9zgYZV2W110-fill)"/></g><g><polygon points="161.95,259.35 159.69,258.04 159.69,258.52 161.95,259.83 163.91,258.69 163.91,258.22" fill="#986c9e"/><polygon points="163.91,258.22 161.65,256.9 159.69,258.04 161.95,259.35" fill="url(#ewE9zgYZV2W113-fill)"/></g><g><polygon points="158.91,257.61 156.65,256.3 156.65,256.78 158.91,258.09 160.87,256.95 160.87,256.48" fill="#986c9e"/><polygon points="160.87,256.48 158.61,255.16 156.65,256.3 158.91,257.61" fill="url(#ewE9zgYZV2W116-fill)"/></g><g><polygon points="155.87,255.88 153.61,254.56 153.61,255.04 155.87,256.35 157.83,255.21 157.83,254.74" fill="#986c9e"/><polygon points="157.83,254.74 155.57,253.42 153.61,254.56 155.87,255.88" fill="url(#ewE9zgYZV2W119-fill)"/></g><g><polygon points="152.83,254.14 150.57,252.82 150.57,253.3 152.83,254.61 154.79,253.47 154.79,253" fill="#986c9e"/><polygon points="154.79,253 152.53,251.68 150.57,252.82 152.83,254.14" fill="url(#ewE9zgYZV2W122-fill)"/></g><g><polygon points="149.79,252.4 147.53,251.08 147.53,251.56 149.79,252.87 151.75,251.74 151.75,251.26" fill="#986c9e"/><polygon points="151.75,251.26 149.49,249.95 147.53,251.08 149.79,252.4" fill="url(#ewE9zgYZV2W125-fill)"/></g><g><polygon points="146.75,250.66 144.49,249.34 144.49,249.82 146.75,251.14 148.71,250 148.71,249.52" fill="#986c9e"/><polygon points="148.71,249.52 146.45,248.21 144.49,249.34 146.75,250.66" fill="url(#ewE9zgYZV2W128-fill)"/></g><g><polygon points="143.71,248.92 141.45,247.61 141.45,248.08 143.71,249.4 145.67,248.26 145.67,247.78" fill="#986c9e"/><polygon points="145.67,247.78 143.41,246.47 141.45,247.61 143.71,248.92" fill="url(#ewE9zgYZV2W131-fill)"/></g><g><polygon points="171.04,264.58 168.78,263.27 168.78,263.74 171.04,265.06 173,263.92 173,263.44" fill="#986c9e"/><polygon points="173,263.44 170.74,262.13 168.78,263.27 171.04,264.58" fill="url(#ewE9zgYZV2W134-fill)"/></g><polygon points="177.59,266.11 175.63,267.25 171.54,264.87 173.5,263.73" fill="url(#ewE9zgYZV2W135-fill)"/><polygon points="139.66,248.99 134.59,246.04 136.55,244.9 141.62,247.85" fill="url(#ewE9zgYZV2W136-fill)"/><polygon points="142.47,250.62 140.21,249.3 142.17,248.17 144.43,249.48" fill="url(#ewE9zgYZV2W137-fill)"/><g><polygon points="167.73,265.31 165.47,264 165.47,264.48 167.73,265.79 169.69,264.65 169.69,264.18" fill="#986c9e"/><polygon points="169.69,264.18 167.43,262.86 165.47,264 167.73,265.31" fill="url(#ewE9zgYZV2W140-fill)"/></g><g><polygon points="164.93,263.68 162.67,262.36 162.67,262.84 164.93,264.15 166.88,263.02 166.88,262.54" fill="#986c9e"/><polygon points="166.88,262.54 164.62,261.23 162.67,262.36 164.93,263.68" fill="url(#ewE9zgYZV2W143-fill)"/></g><g><polygon points="162.12,262.04 159.86,260.73 159.86,261.21 162.12,262.52 164.08,261.38 164.08,260.91" fill="#986c9e"/><polygon points="164.08,260.91 161.82,259.59 159.86,260.73 162.12,262.04" fill="url(#ewE9zgYZV2W146-fill)"/></g><g><polygon points="159.31,260.41 157.05,259.09 157.05,259.57 159.31,260.89 161.27,259.75 161.27,259.27" fill="#986c9e"/><polygon points="161.27,259.27 159.01,257.96 157.05,259.09 159.31,260.41" fill="url(#ewE9zgYZV2W149-fill)"/></g><g><polygon points="156.5,258.77 154.24,257.46 154.24,257.94 156.5,259.25 158.46,258.11 158.46,257.64" fill="#986c9e"/><polygon points="158.46,257.64 156.2,256.32 154.24,257.46 156.5,258.77" fill="url(#ewE9zgYZV2W152-fill)"/></g><g><polygon points="153.7,257.14 151.44,255.82 151.44,256.3 153.7,257.62 155.65,256.48 155.65,256" fill="#986c9e"/><polygon points="155.65,256 153.39,254.69 151.44,255.82 153.7,257.14" fill="url(#ewE9zgYZV2W155-fill)"/></g><g><polygon points="150.89,255.5 148.63,254.19 148.63,254.67 150.89,255.98 152.85,254.84 152.85,254.37" fill="#986c9e"/><polygon points="152.85,254.37 150.59,253.05 148.63,254.19 150.89,255.5" fill="url(#ewE9zgYZV2W158-fill)"/></g><g><polygon points="148.08,253.87 145.82,252.56 145.82,253.03 148.08,254.35 150.04,253.21 150.04,252.73" fill="#986c9e"/><polygon points="150.04,252.73 147.78,251.42 145.82,252.56 148.08,253.87" fill="url(#ewE9zgYZV2W161-fill)"/></g><g><polygon points="145.28,252.24 143.02,250.92 143.02,251.4 145.28,252.71 147.23,251.57 147.23,251.1" fill="#986c9e"/><polygon points="147.23,251.1 144.97,249.78 143.02,250.92 145.28,252.24" fill="url(#ewE9zgYZV2W164-fill)"/></g><polygon points="173.35,268.58 168.49,265.75 170.44,264.61 175.3,267.44" fill="url(#ewE9zgYZV2W165-fill)"/><g><path d="M134.57,248.68l-2.26-1.31v.49c.03,0,2.26,1.3,2.26,1.3l1.96-1.14v-.48l-1.96,1.14Z" fill="#986c9e"/><path d="M134.27,246.23l-1.96,1.14l2.26,1.31l1.96-1.14c-.04-.02-2.26-1.31-2.26-1.31Z" fill="url(#ewE9zgYZV2W168-fill)"/></g><g><path d="M137.38,250.31L135.12,249v.46c0,.01,2.26,1.33,2.26,1.33l1.96-1.14c0-.02,0-.48,0-.48l-1.96,1.14Z" fill="#986c9e"/><path d="M137.08,247.86L135.12,249l2.26,1.31l1.96-1.14c-.04-.01-2.26-1.31-2.26-1.31Z" fill="url(#ewE9zgYZV2W171-fill)"/></g><g><path d="M140.19,251.95l-2.26-1.31v.46c0,.01,2.26,1.33,2.26,1.33l1.96-1.14c0-.02,0-.48,0-.48l-1.96,1.14Z" fill="#986c9e"/><path d="M139.88,249.49l-1.96,1.14l2.26,1.31l1.96-1.14c-.03-.01-2.26-1.31-2.26-1.31Z" fill="url(#ewE9zgYZV2W174-fill)"/></g><g><path d="M142.94,253.57l-2.26-1.31v.46c0,.01,2.26,1.33,2.26,1.33l1.96-1.14c0-.02,0-.48,0-.48l-1.96,1.14Z" fill="#986c9e"/><path d="M142.64,251.12l-1.96,1.14l2.26,1.31l1.96-1.14c-.04-.01-2.26-1.31-2.26-1.31Z" fill="url(#ewE9zgYZV2W177-fill)"/></g><polygon points="164.6,263.87 162.64,265.01 143.54,253.9 145.5,252.76" fill="url(#ewE9zgYZV2W178-fill)"/><polygon points="165.45,266.64 163.19,265.33 164.23,264.72 166.49,266.04" fill="url(#ewE9zgYZV2W179-fill)"/><polygon points="168.26,268.27 166,266.96 167.96,265.82 170.22,267.14" fill="url(#ewE9zgYZV2W180-fill)"/><polygon points="171.07,269.91 168.81,268.59 169.84,267.99 172.1,269.3" fill="url(#ewE9zgYZV2W181-fill)"/><g><polygon points="174.95,264.2 172.69,262.89 172.69,263.37 174.95,264.68 176.91,263.54 176.91,263.07" fill="#986c9e"/><path d="M176.91,263.07l-2.26-1.31-1.93,1.13c-.02.01,2.24,1.33,2.24,1.33l1.95-1.15Z" fill="url(#ewE9zgYZV2W184-fill)"/></g><g><polygon points="171.99,262.48 169.73,261.17 169.73,261.65 171.99,262.96 173.95,261.82 173.95,261.35" fill="#986c9e"/><path d="M173.95,261.35l-2.26-1.31-1.93,1.13c-.02.01,2.24,1.33,2.24,1.33l1.95-1.15Z" fill="url(#ewE9zgYZV2W187-fill)"/></g><g><polygon points="169.03,260.77 166.78,259.45 166.78,259.93 169.03,261.24 170.99,260.1 170.99,259.63" fill="#986c9e"/><path d="M170.99,259.63l-2.26-1.31-1.94,1.13c-.02.01,2.24,1.33,2.24,1.33l1.96-1.15Z" fill="url(#ewE9zgYZV2W190-fill)"/></g><g><polygon points="166.07,259.05 163.82,257.73 163.82,258.21 166.07,259.52 168.03,258.38 168.03,257.91" fill="#986c9e"/><path d="M168.03,257.91l-2.26-1.32-1.93,1.13c-.02.01,2.24,1.33,2.24,1.33l1.95-1.14Z" fill="url(#ewE9zgYZV2W193-fill)"/></g><g><polygon points="163.12,257.33 160.86,256.01 160.86,256.49 163.12,257.8 165.07,256.67 165.07,256.19" fill="#986c9e"/><path d="M165.07,256.19l-2.26-1.31-1.94,1.13c-.02.01,2.24,1.33,2.24,1.33l1.96-1.15Z" fill="url(#ewE9zgYZV2W196-fill)"/></g><g><polygon points="160.15,255.61 157.9,254.29 157.9,254.77 160.15,256.08 162.11,254.95 162.11,254.47" fill="#986c9e"/><path d="M162.11,254.47l-2.26-1.31-1.93,1.13c-.02.01,2.24,1.33,2.24,1.33l1.95-1.15Z" fill="url(#ewE9zgYZV2W199-fill)"/></g><g><polygon points="157.2,253.89 154.94,252.57 154.94,253.05 157.2,254.36 159.15,253.23 159.15,252.75" fill="#986c9e"/><path d="M159.15,252.75l-2.26-1.31-1.94,1.13c-.02.01,2.24,1.33,2.24,1.33l1.96-1.15Z" fill="url(#ewE9zgYZV2W202-fill)"/></g><g><polygon points="154.24,252.17 151.98,250.85 151.98,251.33 154.24,252.64 156.19,251.51 156.19,251.03" fill="#986c9e"/><path d="M156.19,251.03l-2.26-1.31-1.94,1.13c-.02.01,2.24,1.33,2.24,1.33l1.96-1.15Z" fill="url(#ewE9zgYZV2W205-fill)"/></g><g><polygon points="151.28,250.45 149.02,249.14 149.02,249.61 151.28,250.93 153.23,249.79 153.23,249.31" fill="#986c9e"/><path d="M153.23,249.31L150.97,248l-1.94,1.13c-.02.01,2.24,1.33,2.24,1.33l1.96-1.15Z" fill="url(#ewE9zgYZV2W208-fill)"/></g><g><polygon points="148.32,248.73 146.06,247.42 146.06,247.89 148.32,249.21 150.27,248.07 150.27,247.59" fill="#986c9e"/><path d="M150.27,247.59l-2.26-1.31-1.94,1.13c-.02.01,2.24,1.33,2.24,1.33l1.96-1.15Z" fill="url(#ewE9zgYZV2W211-fill)"/></g><g><polygon points="145.36,247.01 143.1,245.7 143.1,246.17 145.36,247.49 147.31,246.35 147.31,245.87" fill="#986c9e"/><path d="M147.31,245.87l-2.26-1.31-1.94,1.13c-.02.01,2.24,1.33,2.24,1.33l1.96-1.15Z" fill="url(#ewE9zgYZV2W214-fill)"/></g><g><polygon points="179.76,262.06 177.5,260.74 177.5,260.27 180.95,260.89 180.95,261.37" fill="#986c9e"/><polygon points="179.76,261.58 177.5,260.27 178.69,259.58 180.95,260.89" fill="url(#ewE9zgYZV2W217-fill)"/></g><g><polygon points="176.95,260.42 174.7,259.11 174.7,258.63 178.14,259.26 178.14,259.73" fill="#986c9e"/><polygon points="176.95,259.95 174.7,258.63 175.88,257.94 178.14,259.26" fill="url(#ewE9zgYZV2W220-fill)"/></g><g><polygon points="174.15,258.79 171.89,257.47 171.89,257 175.33,257.62 175.33,258.1" fill="#986c9e"/><polygon points="174.15,258.31 171.89,257 173.07,256.31 175.33,257.62" fill="url(#ewE9zgYZV2W223-fill)"/></g><g><polygon points="171.34,257.15 169.08,255.84 169.08,255.36 172.52,255.99 172.52,256.46" fill="#986c9e"/><polygon points="171.34,256.68 169.08,255.36 170.27,254.67 172.52,255.99" fill="url(#ewE9zgYZV2W226-fill)"/></g><g><polygon points="168.53,255.52 166.27,254.2 166.27,253.73 169.72,254.35 169.72,254.83" fill="#986c9e"/><polygon points="168.53,255.04 166.27,253.73 167.46,253.04 169.72,254.35" fill="url(#ewE9zgYZV2W229-fill)"/></g><g><polygon points="165.73,253.88 163.47,252.57 163.47,252.09 166.91,252.72 166.91,253.19" fill="#986c9e"/><polygon points="165.73,253.41 163.47,252.09 164.65,251.4 166.91,252.72" fill="url(#ewE9zgYZV2W232-fill)"/></g><g><polygon points="162.92,252.25 160.66,250.93 160.66,250.46 164.1,251.08 164.1,251.56" fill="#986c9e"/><polygon points="162.92,251.77 160.66,250.46 161.84,249.77 164.1,251.08" fill="url(#ewE9zgYZV2W235-fill)"/></g><g><polygon points="160.11,250.61 157.85,249.3 157.85,248.82 161.3,249.45 161.3,249.92" fill="#986c9e"/><polygon points="160.11,250.14 157.85,248.82 159.04,248.13 161.3,249.45" fill="url(#ewE9zgYZV2W238-fill)"/></g><g><polygon points="157.3,248.98 155.04,247.67 155.04,247.19 158.49,247.81 158.49,248.29" fill="#986c9e"/><polygon points="157.3,248.5 155.04,247.19 156.23,246.5 158.49,247.81" fill="url(#ewE9zgYZV2W241-fill)"/></g><g><polygon points="154.5,247.35 152.24,246.03 152.24,245.55 155.68,246.18 155.68,246.66" fill="#986c9e"/><polygon points="154.5,246.87 152.24,245.55 153.42,244.86 155.68,246.18" fill="url(#ewE9zgYZV2W244-fill)"/></g><g><polygon points="151.69,245.71 149.43,244.4 149.43,243.92 152.87,244.54 152.87,245.02" fill="#986c9e"/><polygon points="151.69,245.23 149.43,243.92 150.62,243.23 152.87,244.54" fill="url(#ewE9zgYZV2W247-fill)"/></g></g></g><polygon points="132.74,244.35 159.14,229.1 143.21,219.9 116.8,235.15" fill="#fcd838"/><g><g><g><g><path d="M166.31,228.3l29.25,17.01c0-.01,6.6-5.04,10.54-6.17l-31.09-18.08c-3.48,1.38-7.04,3.44-10.52,6.1-.05.06,1.82,1.14,1.82,1.14v0Z" fill="#b48db8"/><g opacity="0.31"><path d="M166.32,228.28c2.49,1.32,4.99,2.63,7.45,4.01l3.7,2.05l3.67,2.1c2.45,1.39,4.89,2.8,7.31,4.25l3.64,2.15c1.22.71,2.41,1.46,3.62,2.19l-.46.27c.15-.17.32-.35.51-.51.09-.08.2-.16.29-.22l.23-.16.92-.62c.61-.43,1.24-.81,1.88-1.19l.95-.58c.31-.2.65-.35.98-.53l1.96-1.04c.02.04-1.89,1.16-1.89,1.16-.32.19-.64.36-.95.57l-.92.61c-.61.41-1.24.8-1.83,1.24l-1.78,1.27c-.05.03-29.3-16.99-29.3-16.99l.02-.03Z" fill="#a27fb0"/></g><path d="M206.11,239.15c-3.49,1.39-7.05,3.46-10.54,6.14c0,.75,0,1.46,0,2.17c3.53-2.05,7.06-4.1,10.59-6.15c0-.72,0-1.45,0-2.17-.02-.01-.04,0-.05.01Z" fill="#7c4f84"/><path d="M166.31,228.3l-1.87-1.09c-.01.73-.01,1.45-.01,2.17.01.01,31.13,18.1,31.13,18.1c0-.75,0-1.46,0-2.17L166.31,228.3Z" fill="#956b9b"/></g><path d="M183.15,219.54v12.85c0,.32.21.64.63.88.83.49,2.19.49,3.02,0c.42-.24.63-.56.63-.88v-12.85h-4.28Z" fill="#a27fb0"/></g><g><g><polygon points="195.43,232.65 193.44,231.49 193.44,231 195.43,232.15" fill="#b48db8"/></g><g><polygon points="197.96,234.12 195.97,232.97 195.97,232.47 197.96,233.62" fill="#b48db8"/></g><g><polygon points="200.49,235.59 198.5,234.44 198.5,233.94 200.49,235.09" fill="#b48db8"/></g><g><path d="M207.77,198.98L154.1,167.76c-.3-.18-.58-.23-.82-.19-.07-.07-1.54.85-1.54.85l.87,1.64v35.35c0,.96.67,2.12,1.49,2.59l53.01,30.83.28,1.29l1.16-.71c.42-.06.71-.43.71-1.05v-36.79c0-.95-.67-2.11-1.49-2.59Z" fill="#7c4f84"/><path d="M206.52,239.95l-53.67-31.22c-.82-.48-1.49-1.64-1.49-2.59v-36.79c0-.44.14-.76.37-.93.27-.2.67-.19,1.12.06l53.67,31.22c.82.48,1.49,1.64,1.49,2.59v36.79c0,.96-.66,1.35-1.49.87Z" fill="#956b9b"/><path d="M207.39,201.94v35.39c-.02.53-.4.73-.86.46l-53.67-31.21c-.47-.28-.86-.95-.86-1.51v-35.34c0-.3.11-.51.31-.58.14-.07.34-.04.55.08l53.67,31.22c.47.26.86.94.86,1.49Z" fill="#b48db8"/><path d="M207.38,201.93v35.39c-.15.06-.35.03-.55-.09l-53.67-31.22c-.47-.28-.86-.95-.86-1.51v-35.37c.14-.07.34-.04.55.08l53.67,31.21c.48.28.86.96.86,1.51Z" fill="#190128"/><g><polygon points="173.11,185.09 153.95,174.03 153.95,172.11 173.11,183.17" fill="#b48db8"/><polygon points="188.46,193.95 179.35,188.69 179.35,186.78 188.46,192.03" fill="#b48db8"/><polygon points="162.88,186.76 153.95,181.6 153.95,179.68 162.88,184.84" fill="#b48db8"/><polygon points="168.38,189.93 164.52,187.7 164.52,185.78 168.38,188.01" fill="#b48db8"/><polygon points="173.2,192.72 169.62,190.65 169.62,188.73 173.2,190.8" fill="#b48db8"/><polygon points="164.52,191.93 153.95,185.82 153.95,183.9 164.52,190.01" fill="#b48db8"/><polygon points="169.52,194.81 165.88,192.71 165.88,190.79 169.52,192.9" fill="#fb7d5d"/><polygon points="169.44,198.99 153.95,190.05 153.95,188.13 169.44,197.07" fill="#fb7d5d"/><polygon points="173.99,201.62 168.84,198.64 168.84,196.72 173.99,199.7" fill="#b48db8"/><polygon points="179.52,204.81 175.31,202.38 175.31,200.46 179.52,202.89" fill="#b48db8"/><polygon points="164.19,200.18 153.95,194.27 153.95,192.35 164.19,198.27" fill="#b48db8"/><polygon points="169.16,203.05 165.6,201 165.6,199.08 169.16,201.13" fill="#b48db8"/><polygon points="164.97,204.86 153.95,198.49 153.95,196.58 164.97,202.94" fill="#b48db8"/><polygon points="168.88,207.11 165.88,205.38 165.88,203.46 168.88,205.2" fill="#b48db8"/><polygon points="175.26,210.8 170.13,207.84 170.13,205.92 175.26,208.88" fill="#fb7d5d"/><polygon points="164.44,208.78 153.95,202.72 153.95,200.8 164.44,206.86" fill="#b48db8"/><polygon points="169.74,211.84 165.01,209.11 165.01,207.19 169.74,209.92" fill="#fb7d5d"/><polygon points="179.87,192.09 153.95,177.12 153.95,175.2 179.87,190.17" fill="#b48db8"/><polygon points="196.32,201.59 182.26,193.47 182.26,191.55 196.32,199.67" fill="#b48db8"/></g></g><polygon points="203.01,237.06 201.03,235.91 201.03,235.41 203.01,236.56" fill="#b48db8"/><polygon points="200.74,235.7 198.75,234.55 198.75,234.05 200.74,235.2" fill="#b48db8"/><g><g><path d="M205.66,238.42c0,.49-.34.69-.76.44-.42-.24-.76-.84-.76-1.32c0-.49.34-.69.76-.44.42.24.76.83.76,1.32Z" fill="#a27fb0"/><path d="M205.24,239.46c-.19,0-.39-.06-.59-.17-.57-.33-1.01-1.09-1.01-1.76c0-.84.76-1.3,1.5-.87.57.33,1.01,1.09,1.01,1.76.01.61-.37,1.04-.91,1.04Zm-.6-1.94c0,.33.24.76.51.91.02-.32-.23-.75-.5-.9c0-.01-.01-.01-.01-.01Z" fill="#b48db8"/></g></g></g></g><path d="M207.38,201.77v35.17c-.15.06-.35.03-.55-.09l-53.67-31.22c-.47-.28-.86-.95-.86-1.51v-1.98c4.04-1.87,13.68-4.91,22.84-4.91c21.17,0,29.48,3.91,32.24,4.54Z" opacity="0.06" fill="url(#ewE9zgYZV2W297-fill)"/></g><g><g><g><g><path d="M228.21,264.18l29.25,17.01c0-.01,6.6-5.04,10.54-6.17l-31.09-18.08c-3.48,1.38-7.03,3.44-10.52,6.1-.05.05,1.82,1.14,1.82,1.14v0Z" fill="#b48db8"/><g opacity="0.31"><path d="M228.22,264.16c2.49,1.32,4.99,2.63,7.45,4.01l3.7,2.05l3.67,2.1c2.45,1.39,4.89,2.8,7.31,4.25l3.64,2.15c1.22.71,2.41,1.46,3.62,2.19l-.46.27c.15-.17.32-.35.51-.51.09-.08.2-.16.29-.22l.23-.16.92-.62c.6-.43,1.24-.81,1.88-1.19l.95-.58c.31-.2.65-.35.98-.53l1.96-1.04c.02.04-1.89,1.16-1.89,1.16-.32.19-.64.36-.95.57l-.92.61c-.61.41-1.24.8-1.83,1.24l-1.78,1.27c-.05.03-29.3-16.99-29.3-16.99l.02-.03Z" fill="#a27fb0"/></g><path d="M268,275.02c-3.49,1.39-7.05,3.46-10.54,6.14c0,.75,0,1.46,0,2.17c3.53-2.05,7.06-4.1,10.59-6.15c0-.72,0-1.45,0-2.17-.02,0-.03,0-.05.01Z" fill="#7c4f84"/><path d="M228.21,264.18l-1.87-1.09c-.01.73-.01,1.45-.01,2.17.01.01,31.13,18.1,31.13,18.1c0-.75,0-1.46,0-2.17l-29.25-17.01Z" fill="#956b9b"/></g><path d="M245.05,255.41v12.85c0,.32.21.64.63.88.83.49,2.19.49,3.02,0c.42-.24.63-.56.63-.88v-12.85h-4.28Z" fill="#a27fb0"/></g><g><g><polygon points="257.33,268.52 255.34,267.37 255.34,266.87 257.33,268.02" fill="#b48db8"/></g><g><polygon points="259.86,269.99 257.87,268.84 257.87,268.34 259.86,269.5" fill="#b48db8"/></g><g><polygon points="262.38,271.46 260.4,270.31 260.4,269.81 262.38,270.97" fill="#b48db8"/></g><g><path d="M269.67,234.86L216,203.64c-.3-.18-.58-.23-.82-.19-.07-.07-1.54.85-1.54.85l.87,1.64v35.35c0,.96.67,2.12,1.49,2.59l53.01,30.83.28,1.29l1.16-.71c.42-.06.71-.43.71-1.05v-36.79c-.01-.95-.67-2.12-1.49-2.59Z" fill="#7c4f84"/><path d="M268.42,275.83l-53.67-31.22c-.82-.48-1.49-1.64-1.49-2.59v-36.79c0-.44.14-.76.37-.93.27-.2.67-.19,1.12.06l53.67,31.22c.82.48,1.49,1.64,1.49,2.59v36.79c0,.96-.67,1.35-1.49.87Z" fill="#956b9b"/><path d="M269.28,237.81v35.39c-.02.53-.4.73-.86.46l-53.67-31.21c-.47-.28-.86-.95-.86-1.51v-35.34c0-.3.11-.51.31-.58.14-.07.34-.04.55.08l53.67,31.22c.48.26.86.94.86,1.49Z" fill="#b48db8"/><path d="M269.28,237.81v35.39c-.15.06-.35.03-.55-.09l-53.67-31.22c-.47-.28-.86-.95-.86-1.51v-35.37c.14-.07.34-.04.55.08l53.67,31.21c.48.28.86.96.86,1.51Z" fill="#190128"/><g><g><path d="M229.68,244.28c-.11,0-.22-.03-.32-.09l-10.7-6.18c-.2-.11-.32-.33-.32-.56s.12-.44.32-.56l10.63-6.14c.2-.12.45-.12.64,0l10.7,6.18c.2.11.32.33.32.56s-.12.44-.32.56L230,244.19c-.1.06-.21.09-.32.09Zm-9.41-6.82l9.41,5.43l9.35-5.39-9.41-5.43-9.35,5.39Z" fill="#dccbde"/></g><g><path d="M229.68,235.7c-.11,0-.22-.03-.32-.09l-10.7-6.18c-.2-.11-.32-.33-.32-.56s.12-.44.32-.56l10.63-6.14c.2-.12.45-.12.64,0l10.7,6.18c.2.11.32.33.32.56s-.12.44-.32.56L230,235.62c-.1.06-.21.08-.32.08Zm-9.41-6.82l9.41,5.43l9.35-5.39-9.41-5.43-9.35,5.39Z" fill="#dccbde"/></g><g><path d="M229.68,244.28c-.11,0-.22-.03-.32-.09l-10.7-6.18c-.2-.11-.32-.33-.32-.55l-.03-8.57c0-.23.12-.44.32-.56s.44-.12.64,0l10.7,6.18c.2.11.32.33.32.55l.03,8.57c0,.23-.12.44-.32.56-.1.06-.21.09-.32.09Zm-10.05-7.19l9.41,5.43-.03-7.08-9.41-5.43.03,7.08Z" fill="#dccbde"/></g><g><path d="M240.31,238.14c-.11,0-.22-.03-.32-.09l-10.7-6.18c-.2-.11-.32-.33-.32-.55l-.03-8.57c0-.23.12-.44.32-.56.2-.11.44-.12.64,0l10.7,6.18c.2.11.32.33.32.55l.03,8.57c0,.23-.12.44-.32.56-.09.06-.2.09-.32.09Zm-10.05-7.19l9.41,5.43-.03-7.08-9.41-5.43.03,7.08Z" fill="#dccbde"/></g><g><path d="M229.72,244.28c-.11,0-.22-.03-.32-.09-.2-.12-.32-.33-.32-.56l.03-8.57c0-.23.12-.44.32-.55l10.7-6.18c.2-.11.45-.11.64,0c.2.12.32.33.32.56l-.03,8.57c0,.23-.12.44-.32.55l-10.7,6.18c-.1.06-.21.09-.32.09Zm.67-8.84l-.03,7.08l9.41-5.43.03-7.08-9.41,5.43Z" fill="#dccbde"/></g></g><g><g><path d="M251.18,256.44c-.11,0-.22-.03-.32-.09l-10.7-6.18c-.2-.11-.32-.33-.32-.56s.12-.44.32-.56l10.63-6.14c.2-.12.44-.12.64,0l10.7,6.18c.2.11.32.33.32.56s-.12.44-.32.56l-10.63,6.14c-.1.06-.21.09-.32.09Zm-9.41-6.82l9.41,5.43l9.34-5.39-9.41-5.43-9.34,5.39Z" fill="#dccbde"/></g><g><path d="M251.18,256.44c-.11,0-.22-.03-.32-.09l-10.7-6.18c-.16-.09-.27-.24-.31-.42s0-.36.11-.51l10.63-14.71c.16-.23.45-.32.72-.24.27.09.44.33.45.61l.07,20.89c0,.23-.12.44-.32.56-.11.06-.22.09-.33.09Zm-9.76-7.02l9.11,5.26-.06-17.79-9.05,12.53Z" fill="#dccbde"/></g><g><path d="M261.81,250.3c-.11,0-.22-.03-.32-.09l-10.7-6.18c-.2-.11-.32-.33-.32-.55l-.03-8.57c0-.28.18-.53.44-.61.26-.09.56.01.72.23l10.73,14.75c.18.25.16.58-.04.81-.12.13-.3.21-.48.21Zm-10.05-7.2l7.75,4.48-7.78-10.69.03,6.21Z" fill="#dccbde"/></g></g></g><polygon points="264.91,272.93 262.93,271.78 262.93,271.28 264.91,272.44" fill="#b48db8"/><polygon points="262.64,271.58 260.65,270.42 260.65,269.93 262.64,271.08" fill="#b48db8"/><g><g><path d="M267.56,274.29c0,.49-.34.69-.76.44-.42-.24-.76-.84-.76-1.32c0-.49.34-.69.76-.44.42.24.76.83.76,1.32Z" fill="#a27fb0"/><path d="M267.14,275.34c-.19,0-.39-.06-.59-.17-.57-.33-1.01-1.09-1.01-1.76c0-.84.76-1.3,1.5-.87.57.33,1.01,1.09,1.01,1.76.01.61-.37,1.04-.91,1.04Zm-.6-1.95c0,.33.24.76.51.91.02-.32-.23-.75-.5-.9c0,0-.01-.01-.01-.01Z" fill="#b48db8"/></g></g></g></g><path d="M269.28,237.65v35.17c-.15.06-.35.03-.55-.09l-53.67-31.22c-.47-.28-.86-.95-.86-1.51v-1.98c4.04-1.87,13.68-4.91,22.84-4.91c21.17,0,29.48,3.91,32.24,4.54Z" opacity="0.06" fill="url(#ewE9zgYZV2W344-fill)"/></g><g><g><path d="M110.51,273.78l-5.2,21.29c0,0-1.82,1.68-2.35,1.62-.15-.06-.18-.2-.09-.48.47-1.55,1.74-2.37,2.05-4.37.23-1.46,2.98-12.03,4.45-17.65.45-1.73-.47-2.74-1.81-2-.61.34-1.3.72-2.05,1.13-6.65,3.68-18.04,10.09-19.37,11.5-1.9,2-6,7.11-6,7.11s-.73.5-.82.19c-.05-.15.05-.48.43-1.14c0,0,2.9-3.98,5.24-6.28l.16-.16c.13-.13.27-.25.4-.37.06-.06.13-.11.19-.17.06-.05.13-.11.19-.16.17-.13.25-.19.32-.25.19-.13.28-.19.37-.24l19.17-11.07l2.09-1.2c.2-.11.39-.2.58-.27.26-.09.51-.11.74-.11c1.48-.02,2.37,1.14,1.31,3.08Z" fill="#a2bfef"/><path d="M109.37,274.19c-1.47,5.62-4.22,16.19-4.45,17.65-.32,2-1.58,2.82-2.05,4.37-.08.28-.06.42.04.46-.49-.12-4.03-1.07-3.59-2.51.47-1.55,1.74-2.37,2.05-4.37.21-1.36,2.62-10.67,4.14-16.47.75-.41,1.44-.79,2.05-1.13c1.34-.74,2.26.28,1.81,2Z" fill="#879ade"/><path d="M109.18,270.71c-.23-.01-.47.03-.74.11-.18.06-.38.15-.58.27l-2.09,1.2L86.6,283.36c-.09.05-.18.11-.27.17-.17.12-.25.18-.33.24-.15.12-.21.17-.28.23-.06.05-.13.11-.19.17-.13.12-.26.24-.4.37-.05.05-.11.11-.16.16-2.34,2.29-5.24,6.28-5.24,6.28-.38.66-.48,1-.43,1.14-.01.01-3.31-1.96-3.31-1.96-.29.05-.45-.14.19-1.24c0,0,4.58-6.29,6.87-7.61l21.25-12.27c.44-.25,1-.24,1.6-.03.01,0,1.19.62,1.19.62l2.09,1.08Z" fill="#a2bfef"/></g><polygon points="121.39,312.08 121.13,327.57 119.68,326.03" fill="#99aff0"/><g><g clip-path="url(#ewE9zgYZV2W428)"><g><g><g><g><g><path d="M149.26,373.1c-.09.08-.2.14-.31.18l.31-.18Z" fill="#1e3667"/><path d="M146.82,374.44c-.02.65-.2,1.08-.5,1.33-.4.34-1.02.35-1.71-.05-1.22-.7-2.21-2.42-2.21-3.83c0-.36.06-.66.18-.91.15-.31.37-.51.66-.61.38-.13.85-.06,1.37.24.23.13.44.3.65.49.7.65,1.25,1.6,1.46,2.53.05.22.08.44.09.65.01.05.01.11.01.16Z" fill="#2e1238"/><path d="M147,373.37c0,.36-.06.66-.18.91-.01-.21-.04-.43-.09-.65-.21-.93-.76-1.88-1.46-2.53-.21-.19-.42-.36-.65-.49-.52-.3-.99-.37-1.37-.24-.29.1-.51.3-.66.61c0-.05,0-.1,0-.16c0-.81.33-1.34.84-1.52.36-.12.82-.06,1.31.21.29.17.51.33.71.52.7.65,1.25,1.6,1.46,2.53.06.28.09.55.09.81Z" fill="#562c77"/><path d="M149.76,371.78c0,.36-.06.67-.18.91-.08.17-.19.31-.32.42c0,0-.31.18-.31.18l-2.13,1.23c0-.13,0-.18,0-.23.12-.24.18-.55.18-.91c0-.26-.03-.53-.1-.81-.21-.93-.76-1.88-1.46-2.53-.2-.19-.42-.36-.65-.49-.55-.3-1.01-.36-1.37-.24l2.4-1.38c.41-.36,1.03-.37,1.73.03c1.22.7,2.21,2.41,2.21,3.82Z" fill="#925f97"/><path d="M149.58,372.84c0,.61-.19,1.07-.5,1.33c0,0-.31.18-.31.18l-2.45,1.41c.3-.25.48-.67.5-1.25l2.13-1.23.31-.18c.13-.11.24-.25.32-.42c0,.06,0,.11,0,.16Z" fill="#3c0a59"/></g><g><path d="M96.46,342.62c-.09.08-.2.14-.31.18l.31-.18Z" fill="#1e3667"/><path d="M94.02,343.95c-.02.65-.2,1.08-.5,1.33-.4.34-1.02.35-1.71-.05-1.22-.7-2.21-2.42-2.21-3.83c0-.36.06-.67.18-.91.15-.31.37-.51.66-.61.38-.13.85-.06,1.37.24.23.13.44.3.65.49.7.65,1.25,1.6,1.46,2.53.05.22.08.44.09.65.01.06.01.11.01.16Z" fill="#2e1238"/><path d="M94.2,342.89c0,.36-.07.67-.18.91-.01-.21-.04-.43-.09-.65-.21-.93-.76-1.88-1.46-2.53-.21-.19-.42-.36-.65-.49-.52-.3-.99-.37-1.37-.24-.29.1-.51.3-.66.61c0-.05,0-.1,0-.16c0-.81.33-1.34.84-1.52.36-.12.82-.06,1.31.21.29.17.51.33.71.52.7.65,1.25,1.6,1.46,2.53.05.27.09.54.09.81Z" fill="#562c77"/><path d="M96.96,341.29c0,.36-.07.67-.18.91-.08.17-.19.31-.32.42c0,0-.31.18-.31.18l-2.13,1.23c0-.13,0-.18,0-.23.12-.24.18-.55.18-.91c0-.26-.03-.53-.1-.81-.21-.93-.76-1.88-1.46-2.53-.21-.19-.42-.36-.65-.49-.55-.3-1.01-.36-1.37-.24l2.4-1.38c.41-.36,1.03-.37,1.73.03c1.22.7,2.21,2.41,2.21,3.82Z" fill="#925f97"/><path d="M96.78,342.36c0,.61-.19,1.07-.5,1.33c0,0-.31.18-.31.18l-2.45,1.41c.3-.25.48-.67.5-1.25l2.13-1.23.31-.18c.13-.11.24-.25.32-.42c0,.05,0,.1,0,.16Z" fill="#3c0a59"/></g><g><path d="M96.46,373.1c-.09.08-.2.14-.31.18l.31-.18Z" fill="#1e3667"/><path d="M94.02,374.44c-.02.65-.2,1.08-.5,1.33-.4.34-1.02.35-1.71-.05-1.22-.7-2.21-2.42-2.21-3.83c0-.36.06-.66.18-.91.15-.31.37-.51.66-.61.38-.13.85-.06,1.37.24.23.13.44.3.65.49.7.65,1.25,1.6,1.46,2.53.05.22.08.44.09.65.01.05.01.11.01.16Z" fill="#2e1238"/><path d="M94.2,373.37c0,.36-.07.66-.18.91-.01-.21-.04-.43-.09-.65-.21-.93-.76-1.88-1.46-2.53-.21-.19-.42-.36-.65-.49-.52-.3-.99-.37-1.37-.24-.29.1-.51.3-.66.61c0-.05,0-.1,0-.16c0-.81.33-1.34.84-1.52.36-.12.82-.06,1.31.21.29.17.51.33.71.52.7.65,1.25,1.6,1.46,2.53.05.28.09.55.09.81Z" fill="#562c77"/><path d="M96.96,371.78c0,.36-.07.67-.18.91-.08.17-.19.31-.32.42c0,0-.31.18-.31.18l-2.13,1.23c0-.13,0-.18,0-.23.12-.24.18-.55.18-.91c0-.26-.03-.53-.1-.81-.21-.93-.76-1.88-1.46-2.53-.21-.19-.42-.36-.65-.49-.55-.3-1.01-.36-1.37-.24l2.4-1.38c.41-.36,1.03-.37,1.73.03c1.22.7,2.21,2.41,2.21,3.82Z" fill="#925f97"/><path d="M96.78,372.84c0,.61-.19,1.07-.5,1.33c0,0-.31.18-.31.18l-2.45,1.41c.3-.25.48-.67.5-1.25l2.13-1.23.31-.18c.13-.11.24-.25.32-.42c0,.06,0,.11,0,.16Z" fill="#3c0a59"/></g><g><path d="M149.26,342.62c-.09.08-.2.14-.31.18l.31-.18Z" fill="#1e3667"/><path d="M146.82,343.95c-.02.65-.2,1.08-.5,1.33-.4.34-1.02.35-1.71-.05-1.22-.7-2.21-2.42-2.21-3.83c0-.36.06-.67.18-.91.15-.31.37-.51.66-.61.38-.13.85-.06,1.37.24.23.13.44.3.65.49.7.65,1.25,1.6,1.46,2.53.05.22.08.44.09.65.01.06.01.11.01.16Z" fill="#2e1238"/><path d="M147,342.89c0,.36-.06.67-.18.91-.01-.21-.04-.43-.09-.65-.21-.93-.76-1.88-1.46-2.53-.21-.19-.42-.36-.65-.49-.52-.3-.99-.37-1.37-.24-.29.1-.51.3-.66.61c0-.05,0-.1,0-.16c0-.81.33-1.34.84-1.52.36-.12.82-.06,1.31.21.29.17.51.33.71.52.7.65,1.25,1.6,1.46,2.53.06.27.09.54.09.81Z" fill="#562c77"/><path d="M149.76,341.29c0,.36-.06.67-.18.91-.08.17-.19.31-.32.42c0,0-.31.18-.31.18l-2.13,1.23c0-.13,0-.18,0-.23.12-.24.18-.55.18-.91c0-.26-.03-.53-.1-.81-.21-.93-.76-1.88-1.46-2.53-.2-.19-.42-.36-.65-.49-.55-.3-1.01-.36-1.37-.24l2.4-1.38c.41-.36,1.03-.37,1.73.03c1.22.7,2.21,2.41,2.21,3.82Z" fill="#925f97"/><path d="M149.58,342.36c0,.61-.19,1.07-.5,1.33c0,0-.31.18-.31.18l-2.45,1.41c.3-.25.48-.67.5-1.25l2.13-1.23.31-.18c.13-.11.24-.25.32-.42c0,.05,0,.1,0,.16Z" fill="#3c0a59"/></g><path d="M148.15,336.5c-.26-.05-1.09-.75-1.42-.82-8.18-1.72-17.65.53-27.12,5.98-9.51,5.48-19.02,14.19-27.23,25.39-.67.91-.86,1.99-.46,2.4.29.29,1.22.62,1.42.82.42.42,1.25.04,1.88-.81c7.78-10.61,16.79-18.87,25.8-24.06c8.98-5.17,17.95-7.3,25.7-5.67.62.13,1.45-.45,1.86-1.33.43-.9.24-1.76-.43-1.9Z" fill="#aa80a0"/><path d="M148.15,367.88c-8.18-11.16-17.65-19.85-27.12-25.33-9.51-5.5-19.02-7.77-27.23-6.05-.34.07-1.16.77-1.42.82-.67.14-.86.99-.46,1.87.42.91,1.25,1.49,1.88,1.36c7.78-1.63,16.79.52,25.8,5.73c8.98,5.19,17.95,13.43,25.7,24c.62.85,1.45,1.23,1.86.82.21-.21,1.14-.54,1.42-.82.43-.41.24-1.49-.43-2.4Z" fill="#aa80a0"/></g><path d="M120.65,344.27c-.73.42-1.92.42-2.66,0-.55-.31-.68-.77-.42-1.16v-32.12l3.55,2.05v30.16c.19.37.03.79-.47,1.07Z" fill="#452751"/></g></g><g><path d="M117.62,251.83c0,0,4.15.74,5.52.37s5.15-1.01,6.44-1.02c1.28-.01,1.58-.18,1.58-.18l7.69-3.62l5.97-2.29c0,0,3.1.35,4.22,0s2.04-.57,1.58.33-1.68,1.51-2.72,1.58-1.57.38-1.57.38l4.51.23c0,0,.38,1.79-.91,1.79-1.3,0-4.69.26-4.69.26s-1.67.77-3.03,2.26c-1.37,1.5-2.05,2.95-2.05,2.95s.73,1.34,2.8.91s2.96.87,2.96,1.55-1.51,1.63-2.41,1.47c-.89-.16-1.7-.66-1.94-.65s-.97.31-3.46-.12-5.19-1.58-6.27-1.6-3.38.29-3.38.29-14.59,1.92-17.47,1.76-6.9-.24-5.94-5.71c.95-5.45,12.57-.94,12.57-.94Z" fill="#ed8d9b"/><path d="M127.37,290.89l1.87,36.16c-.03.32.08.55.35.71c1.21.71,5.22-.47,8.96-2.63c1.55-.89,2.92-27.1,3.78-27.92.45-.3.61-11.04.61-11.04l-15.57,4.72Z" clip-rule="evenodd" fill="#2a3463" fill-rule="evenodd"/><path d="M135.27,231.63c-.64,1.56-1.71,1.83-1.66,2.79s.97.59.05,2.41-1.29,5.52-3.75,6.38c-.08.02-.14.04-.21.07-2.33.75-3.67.02-3.97,1.93-.33,1.97-1.31,6.64-1.08,6.88c20.76,21.26-23.72,2.48-12.55-6.81l2.67-6.4.12-.28c0,0-4.29-6.22-2.79-11.31c1.51-5.08,4.83-7.66,12.66-7.71s9.55,5.15,9.86,6.22c.33,1.07,1.29,4.28.65,5.83Z" fill="#ec6379"/><path d="M135.27,231.63c-.64,1.56-1.71,1.83-1.66,2.79s.97.59.05,2.41-1.29,5.52-3.75,6.38c-.08.02-.14.04-.21.07-.12-.22-11.01,2.03-11.47-1.89-.34-2.83-2.23-1.3-3.45-2.51l.12-.28c0,0-4.29-6.22-2.79-11.31c1.51-5.08,4.83-7.66,12.66-7.71s9.55,5.15,9.86,6.22c.32,1.07,1.28,4.28.64,5.83Z" fill="#ed8d9b"/><g><g><g><g><path d="M111.85,283.22h-2.76v.78c-.03.23.1.46.4.64.54.31,1.41.31,1.95,0c.3-.17.43-.41.4-.64.01.01.01-.78.01-.78Z" fill="#879ade"/><path d="M111.44,283.79c-.54.31-1.41.31-1.95,0s-.54-.81,0-1.12s1.41-.31,1.95,0c.54.3.54.81,0,1.12Z" fill="#99aff0"/></g><g><path d="M121.26,299.12h-2.76v.78c-.03.23.1.46.4.64.54.31,1.41.31,1.95,0c.3-.17.43-.41.4-.64.01,0,.01-.78.01-.78Z" fill="#879ade"/><path d="M120.86,299.68c-.54.31-1.41.31-1.95,0s-.54-.81,0-1.12s1.41-.31,1.95,0c.53.3.53.81,0,1.12Z" fill="#99aff0"/></g></g><g><g><g><g><path d="M147.45,282.65c-6.42-2.21-17.41,3.55-25.81,7.67.51,7.1,2.09,14.06,3.33,21.07c6.25-2.17,11.36-8.87,18.85-14.21l7.1-3.63c.48-7.36-.07-9.74-3.47-10.9Z" clip-rule="evenodd" fill="#2a3463" fill-rule="evenodd"/></g></g><g><g><path d="M132.56,319.88l-5.14,3.93c.06,4.73.05,7.06,1.88,8.29c2.23,1.5,5.99.29,8.27-.75l.61-1.83c2.19-.3,1.7.35,4.06-.96c3.96-2.2,9.79-5.6,10.57-9.53.2-1.01-.58-2.82-1.59-2.65l-9.33,3.24-9.33.26Z" clip-rule="evenodd" fill="#1e3667" fill-rule="evenodd"/></g><g><path d="M154.72,336.12l-5.3,3.71c-.14,4.73-.25,7.05,1.53,8.36c2.16,1.59,5.98.54,8.29-.4l.69-1.8c3.12-.3,2.26.17,5.43-1.47c3.83-1.99,8.5-4.79,9.34-8.26.24-1-.45-2.83-1.47-2.71l-6.59,2.93-11.92-.36Z" clip-rule="evenodd" fill="#1e3667" fill-rule="evenodd"/><path d="M162.55,291.31c-.64,3.2-8.48,9.81-9.26,12.98c0,0-3.7,36.83-3.53,37.01.98,1,10.52,2.74,11.87-4.97c4-1.03,9.37-37.6,9.37-37.6c2.31-7.7-6.41-14.26-8.45-7.42Z" clip-rule="evenodd" fill="#190128" fill-rule="evenodd"/></g><path d="M162.74,312.92l-17.34,5.35-10.61,8.13-11.21,3.78-2.45-2.6-1.45-1.54l1.71-13.96.55-4.45-2.87-10.77-1.53-8.29c1.5-.12,2.77-.01,3.42.42.09-.03,41.78,23.93,41.78,23.93Z" fill="#562c77"/></g><g><g><path d="M113.53,291.51l-13.3-.52c-1.6,7.24-.7,15.81,2.63,19.3c4.81,5.03,14.12,11.86,23.42,9.73c6.91-1.58,18.8-8.66,26.84-14.39l17.56-7.7c3.31-6.61,5.04-10.75-4.2-12.73-6.64-1.42-24.2,5.72-32.6,9.83l-20.35-3.52Z" clip-rule="evenodd" fill="#190128" fill-rule="evenodd"/></g></g><path d="M130.57,311.55c-1.24.51-2.89.49-4.73.15-7.03-1.26-25.78-7.48-25.43-19.56.14-5.07,3.72-5.87-1.13-18.91-9.36-25.18,3.99-32.04,6.53-32.04c2.59,0,7.14,2.09,7.14,2.09s-3.17,4.73,1.49,7.62c7.59,4.68,7.81,2.35,10.45,2.03c3.06-.37,7.65,4.21,10.25,6.86c4.98,5.08-2.25,20.62-.19,24.72c2.06,4.12,3.71,13.8,3.71,13.8s2.08,9.11-8.09,13.24Z" fill="#fdfdfd"/><path d="M130.57,311.55c-1.24.51-2.89.49-4.73.15-2.4-4.39-1.79-13.61-4.15-21.42-3.49-11.54,0-27.26,5.26-28.69.53-.15,1.04-.19,1.53-.15c1.58,1.24,2.89,2.28,3.27,2.67.8.8,1.16,2.47,1.24,4.61.02.73.02,1.53-.02,2.38-.1,2.35-.07,9.31,1.99,13.41c2.06,4.12,3.71,13.8,3.71,13.8s2.07,9.11-8.1,13.24Z" fill="#e9e3ff"/></g></g></g></g><path d="M140.76,282.53c0,0,5.51-7.22,6.16-8.59.66-1.37,5.56-8.66,5.56-8.66l-1.87-1.46c0,0-.34-1.42-.88-1.76s-2.32-1.4-1.43-2.03c.89-.64,2.37-.35,3.15.67.79,1.02,1.26,1.55,1.26,1.55l1.9-4.56.03-4.49c0,0-.1-2.03.72-2.14s1.77-.07,1.26,1.16c-.52,1.23.13,1.71.13,1.71l.5,4.02l1.08-3.87c0,0,1.07-1.69,1.23-2.29s1.37-.54,1.41.31-.12,3.14-.12,3.14l-1.03,3.27l2.12-3.52l2.32-2.06c0,0,1.56-.12,1.01.96s-1.63,2.37-1.63,2.37l-1.7,3.77l2.79-.71l2.82.08c0,0,.06,1.54-.87,1.61s-1.58.23-1.58.23l-2.02,1.01c0,0-.61,3.37-1.86,4.44s-2.49,1.79-2.49,1.79-10.83,24.9-14.45,26.99c-3.63,2.07-5.52-8.94-3.52-12.94Z" fill="#ed8d9b"/><path d="M139.28,279.13c0,0,2.08-3.23,5.67-2.24s7.12,6.09,6.62,9.28c-.51,3.19-4.38,9.8-8.42,9.54s-8.2-11.77-3.87-16.58Z" fill="#e9e3ff"/><path d="M124.29,267.99c.04,6.84,8.85,33.29,18.2,28.59s1.34-15.08,0-18.7-2.25-18.45-8.75-18.91c-6.51-.47-9.49,2.18-9.45,9.02Z" fill="#fdfdfd"/><path d="M128.68,237.12c-.16-.01.5-1.46-.79-.87-1.3.59-1.84,1.35-2.05,2.36-.22,1.11-.27,3.76.48,3.22s1.57-2.09,1.57-2.09-.44,0-.92,0s.01-1.88.29-2.25c1.11-1.48,1.42-.37,1.42-.37Z" fill="#ec6379"/><path d="M121.6,241.28c0,0,1.29-3.03,7.25-5.7c2.92-1.31,9.8-8.17,3.8-13.18-1.03-.86-2.5-2.19-6.43-2.78s-13.03,1.96-13.54,9.89c-.69,10.93,6.67,16.44,8.92,11.77Z" opacity="0.25" fill="#120a30"/></g><g><path d="M121.39,312.08l-1.71,13.96l1.45,1.54-.04,2.6L81.13,307.3l-.09-.25c-.21-.07-.4-.16-.59-.26-6.35-3.67-1.26-12.09-1.26-18.85s-4.26-18.34-4.42-20.8.67-4.35,1.03-4.15l41.44,23.92.3,1.65l1.53,8.29l2.36,12.82-.04,2.41Z" fill="#c4a1ba"/><path d="M117.24,286.92c0,0,6.95,18.5,6.71,22.56s-4.7,15.97-.32,18.5s24.23-11.44,27.47-13.31s11.76-3.42,11.76-.96-4.26-.18-7.58,1.73-27.03,18.93-33.39,15.27c-6.35-3.67-1.26-12.09-1.26-18.85s-4.26-18.34-4.42-20.8.67-4.35,1.03-4.14Z" fill="#925f97"/><g><path d="M155.5,299.76l-5.2,21.29c0,0-1.82,1.68-2.35,1.62-.15-.06-.18-.2-.09-.48.47-1.55,1.74-2.37,2.05-4.37.23-1.46,2.98-12.03,4.45-17.65.45-1.73-.47-2.74-1.81-2-.61.33-1.3.71-2.05,1.13-6.65,3.68-18.04,10.09-19.37,11.5-1.89,2-6,7.11-6,7.11s-.73.5-.82.19c-.05-.15.05-.48.43-1.14c0,0,2.9-3.98,5.24-6.28l.16-.16c.13-.13.27-.25.4-.37.06-.06.13-.11.19-.17.06-.05.13-.11.19-.16.17-.13.25-.19.32-.25.19-.13.28-.19.37-.24l19.17-11.07l2.09-1.2c.2-.11.39-.2.58-.26.26-.09.51-.13.74-.12c1.12.05,1.76,1.27,1.31,3.08Z" fill="#925f97"/><path d="M154.36,300.17c-1.47,5.62-4.22,16.19-4.45,17.65-.32,2-1.58,2.82-2.05,4.37-.08.28-.06.42.04.46-.49-.12-4.03-1.07-3.59-2.51.47-1.55,1.74-2.37,2.05-4.37.21-1.36,2.62-10.67,4.14-16.47.75-.41,1.44-.79,2.05-1.13c1.34-.74,2.27.27,1.81,2Z" fill="#c4a1ba"/><path d="M154.17,296.69c-.23-.01-.47.03-.74.12-.18.06-.38.15-.58.26l-2.09,1.2-19.17,11.07c-.09.05-.18.11-.27.17-.17.12-.25.18-.33.24-.15.12-.21.17-.28.23-.06.05-.13.11-.19.17-.13.11-.26.24-.4.37-.05.05-.11.11-.16.16-2.34,2.29-5.24,6.28-5.24,6.28-.38.66-.48,1-.43,1.14-.01.01-3.31-1.96-3.31-1.96-.29.06-.45-.14.19-1.24c0,0,4.58-6.29,6.87-7.61l21.26-12.27c.44-.25,1-.24,1.6-.03.01,0,1.19.62,1.19.62l2.08,1.08Z" fill="#c4a1ba"/></g></g><path d="M119.88,243.27c0,0-.18-11.05,5.78-13.72c2.92-1.31,12.14-1.61,9.37-11.1-.38-1.29-3.12-6.39-14.76-2.04-3.34,1.25-8.79,3.59-9.3,11.52-.69,10.93.51,14.68,8.91,15.34Z" fill="#120a30"/></g><clipPath id="ewE9zgYZV2W428"><use xlink:href="#ewE9zgYZV2W2"/></clipPath></g></g></g></g></g></g></g><g><g><polygon points="209.29,299.12 237.8,283.93 237.8,281.96 237.8,280.57 188.72,285.1 188.72,288.46" fill="#f7991d"/><polygon points="209.29,295.76 237.8,280.57 217.24,269.91 188.72,285.1" fill="#f6b735"/><polygon points="223.94,283.93 230.32,280.62 218.56,274.52 212.18,277.83" fill="#fad445"/><polygon points="209.61,296.61 209.61,298.4 189.49,288.21 189.49,286.21" fill="#fff"/></g><polygon points="209.61,296.61 237.8,281.7 237.8,283.28 209.61,298.4" fill="#d3e2f7"/></g></g><g><g><polygon points="314.61,97.65 287.25,81.86 287.25,50.47 314.61,66.26" fill="#a1e1fd"/><polygon points="321.33,93.84 314.58,97.65 314.58,66.26 321.33,62.45" fill="#32b2f6"/><polygon points="314.66,66.22 287.31,50.42 293.89,46.71 321.24,62.5" fill="#6dd1fd"/></g><g><g><path d="M297.03,69.95c-.14.68-.35,1.19-.66,1.54.4.92.65,1.93.75,3.06v3.94c0,.31.02.6.06.86.14.84.53,1.45,1.44,1.97l.31.18v3.96l-.31-.18c-.53-.3-1-.62-1.44-.94-2.26-1.7-3.39-3.79-3.65-6.62v-3.92c0-.32-.02-.61-.06-.87-.14-.84-.53-1.43-1.44-1.96l-.31-.18v-3.95l.31.18c.15.09.28.15.41.2.14.06.26.09.37.11.05,0,.11,0,.15,0c.1,0,.18-.04.24-.09.03-.02.06-.06.09-.09.06-.06.1-.15.14-.26.02-.06.03-.11.05-.18.05-.22.06-.48.06-.8v-3.56c.27-2.51,1.38-3.29,3.65-2.38.44.18.91.42,1.44.72l.31.18v3.95l-.31-.18c-.91-.52-1.3-.39-1.44.3-.05.21-.06.48-.06.8v3.56c-.03.26-.06.46-.1.65Z" fill="#1e3667"/></g><g><path d="M304.83,78.29c.14-.68.35-1.19.66-1.54-.4-.92-.65-1.93-.75-3.06v-3.56c0-.31-.02-.6-.06-.86-.14-.84-.53-1.45-1.44-1.97l-.31-.18v-3.96l.31.18c.53.3,1,.62,1.44.94c2.26,1.7,3.39,3.79,3.65,6.62v3.54c0,.32.02.61.06.87.14.84.53,1.43,1.44,1.96l.31.18v3.95l-.31-.18c-.15-.09-.28-.15-.41-.2-.14-.06-.26-.09-.37-.11-.05,0-.11,0-.15,0-.1,0-.18.04-.24.09-.03.02-.06.06-.09.09-.06.06-.1.15-.14.26-.02.06-.03.11-.05.18-.05.22-.06.48-.06.8v3.94c-.27,2.51-1.38,3.29-3.65,2.38-.44-.18-.91-.42-1.44-.72l-.31-.18v-3.95l.31.18c.91.52,1.3.39,1.44-.3.05-.21.06-.48.06-.8v-3.94c.03-.26.06-.46.1-.65Z" fill="#1e3667"/></g></g></g><g><g><polygon points="150.2,84.85 126.16,70.91 126.16,52.39 150.2,66.33" fill="#a1e1fd"/><polygon points="154.17,82.6 150.18,84.85 150.18,66.33 154.17,64.08" fill="#32b2f6"/><polygon points="150.23,66.3 126.19,52.36 130.08,50.17 154.12,64.1" fill="#6dd1fd"/></g><g><path d="M131.11,65.85l2.65,4.18v.75l-1.99-1.15-2.83-4.52v-1.01l2.83-1.26l1.99,1.15v.74l-2.65,1.12Z" fill="#1e3667"/><path d="M136.27,74.18l-1.96-1.13v-.61l5.36-7.48l1.95,1.13v.61l-5.35,7.48Z" fill="#1e3667"/><path d="M142.18,68.85l2,1.16l2.83,4.52v1.01l-2.83,1.26-2-1.16v-.75l2.66-1.12-2.66-4.19v-.73Z" fill="#1e3667"/></g></g><g><g><polygon points="387.71,298.3 361.44,283.13 361.44,252.98 387.71,268.15" fill="#f6b735"/><polygon points="394.17,294.64 387.69,298.3 387.69,268.15 394.17,264.48" fill="#f7991d"/><polygon points="387.77,268.1 361.49,252.93 367.81,249.36 394.09,264.53" fill="#fad445"/></g><g><path d="M367.63,281.62l-.19-.11c-2.22-1.28-3.12-2.91-3.12-5.43v-11.98c0-2.52.89-3.1,3.12-1.81l.19.11v2.39l-.19-.11c-.72-.42-.91-.15-.91.66v12.07c0,.79.19,1.29.91,1.71l.19.11v2.39Z" fill="#2a3463"/><path d="M381.71,287.36c.72.42.91.13.91-.66v-12.07c0-.81-.19-1.29-.91-1.71l-.19-.11v-2.39l.19.11c2.22,1.28,3.12,2.89,3.12,5.41v11.98c0,2.51-.89,3.11-3.12,1.83l-.19-.11v-2.39l.19.11Z" fill="#2a3463"/></g></g><g id="ewE9zgYZV2W464_ts" transform="translate(87.014999,127.5) scale(1,1)"><g transform="translate(-87.014999,-127.5)"><g><polygon points="96.64,151.25 71.13,136.53 71.13,107.26 96.64,121.99" fill="#fcd838"/><polygon points="102.9,147.69 96.61,151.25 96.61,121.99 102.9,118.43" fill="#e8be33"/><polygon points="96.69,121.94 71.19,107.22 77.32,103.75 102.82,118.48" fill="#f2ca25"/></g><g><path d="M78.43,130.81v-2.75l1.74,1.01v-8.25l2.99,1.73v9.63c0,.8-.5,1.08-1.19.68l-3.54-2.05Z" fill="#1e3667"/><path d="M83.98,126.7v-2.31c0-.8.49-1.08,1.21-.67l5.21,3.01v1.35l-.47,1.15-2.95-1.7v.5l2.6,3.5c.66.88.81,1.46.81,2.34v2.5c0,.8-.49,1.08-1.19.68l-5.22-3.02v-2.75l3.41,1.97v-.72l-2.61-3.48c-.65-.91-.8-1.47-.8-2.35Z" fill="#1e3667"/></g></g></g><g><g><polygon points="196.01,151.05 169.08,135.5 169.08,104.6 196.01,120.15" fill="#ec6379"/><polygon points="202.63,147.29 195.98,151.05 195.98,120.15 202.63,116.39" fill="#ad3447"/><polygon points="196.07,120.1 169.14,104.55 175.62,100.89 202.55,116.44" fill="#d84e64"/></g><g><path d="M180.39,120.46v1.44l-.49,1.19-3.11-1.8v5.79l3.61,2.08v2.9l-5.5-3.18c-.75-.44-1.28-1.33-1.28-2.18v-8.72c0-.85.52-1.14,1.28-.71l5.49,3.19Z" fill="#1e3667"/><path d="M182.97,131.26l-2.01-1.16v-2.34l2.01,1.16v-2.3l-2.01-1.16v-2.34l2.01,1.16v-2.32l2.06,1.19v2.32l2,1.15v-2.32l2.06,1.19v2.32l2.01,1.16v2.34l-2.01-1.16v2.31l2.01,1.16v2.34l-2.01-1.16v2.31l-2.06-1.19v-2.31l-2-1.15v2.31l-2.06-1.19v-2.32Zm2.06-1.15l2,1.15v-2.3l-2-1.15v2.3Z" fill="#1e3667"/></g></g><g id="ewE9zgYZV2W480_ts" transform="translate(262.400009,150.860001) scale(1,1)"><g transform="translate(-262.400009,-150.860001)"><g><polygon points="272.55,175.94 245.63,160.39 245.63,129.49 272.55,145.04" fill="#f6b735"/><polygon points="279.17,172.18 272.53,175.94 272.53,145.04 279.17,141.28" fill="#f7991d"/><polygon points="272.61,144.99 245.68,129.44 252.16,125.78 279.09,141.33" fill="#fad445"/></g><g><polygon points="272.55,175.94 245.63,160.39 245.63,129.49 272.55,145.04" fill="#f6b735"/><polygon points="279.17,172.18 272.53,175.94 272.53,145.04 279.17,141.28" fill="#f7991d"/><polygon points="272.61,144.99 245.68,129.44 252.16,125.78 279.09,141.33" fill="#fad445"/></g><g><polygon points="272.55,175.94 245.63,160.39 245.63,129.49 272.55,145.04" fill="#f6b735"/><polygon points="279.17,172.18 272.53,175.94 272.53,145.04 279.17,141.28" fill="#f7991d"/><polygon points="272.61,144.99 245.68,129.44 252.16,125.78 279.09,141.33" fill="#fad445"/></g><g><polygon points="272.55,175.94 245.63,160.39 245.63,129.49 272.55,145.04" fill="#f6b735"/><polygon points="279.17,172.18 272.53,175.94 272.53,145.04 279.17,141.28" fill="#f7991d"/><polygon points="272.61,144.99 245.68,129.44 252.16,125.78 279.09,141.33" fill="#fad445"/></g><g><polygon points="272.55,175.94 245.63,160.39 245.63,129.49 272.55,145.04" fill="#f6b735"/><polygon points="279.17,172.18 272.53,175.94 272.53,145.04 279.17,141.28" fill="#f7991d"/><polygon points="272.61,144.99 245.68,129.44 252.16,125.78 279.09,141.33" fill="#fad445"/></g><g><polygon points="272.55,175.94 245.63,160.39 245.63,129.49 272.55,145.04" fill="#f6b735"/><polygon points="279.17,172.18 272.53,175.94 272.53,145.04 279.17,141.28" fill="#f7991d"/><polygon points="272.61,144.99 245.68,129.44 252.16,125.78 279.09,141.33" fill="#fad445"/></g><g><polygon points="272.55,175.94 245.63,160.39 245.63,129.49 272.55,145.04" fill="#f6b735"/><polygon points="279.17,172.18 272.53,175.94 272.53,145.04 279.17,141.28" fill="#f7991d"/><polygon points="272.61,144.99 245.68,129.44 252.16,125.78 279.09,141.33" fill="#fad445"/></g><g><polygon points="272.55,175.94 245.63,160.39 245.63,129.49 272.55,145.04" fill="#f6b735"/><polygon points="279.17,172.18 272.53,175.94 272.53,145.04 279.17,141.28" fill="#f7991d"/><polygon points="272.61,144.99 245.68,129.44 252.16,125.78 279.09,141.33" fill="#fad445"/></g><g><polygon points="272.55,175.94 245.63,160.39 245.63,129.49 272.55,145.04" fill="#f6b735"/><polygon points="279.17,172.18 272.53,175.94 272.53,145.04 279.17,141.28" fill="#f7991d"/><polygon points="272.61,144.99 245.68,129.44 252.16,125.78 279.09,141.33" fill="#fad445"/></g><g><polygon points="272.55,175.94 245.63,160.39 245.63,129.49 272.55,145.04" fill="#f6b735"/><polygon points="279.17,172.18 272.53,175.94 272.53,145.04 279.17,141.28" fill="#f7991d"/><polygon points="272.61,144.99 245.68,129.44 252.16,125.78 279.09,141.33" fill="#fad445"/></g><g><polygon points="272.55,175.94 245.63,160.39 245.63,129.49 272.55,145.04" fill="#f6b735"/><polygon points="279.17,172.18 272.53,175.94 272.53,145.04 279.17,141.28" fill="#f7991d"/><polygon points="272.61,144.99 245.68,129.44 252.16,125.78 279.09,141.33" fill="#fad445"/></g><g><polygon points="272.55,175.94 245.63,160.39 245.63,129.49 272.55,145.04" fill="#f6b735"/><polygon points="279.17,172.18 272.53,175.94 272.53,145.04 279.17,141.28" fill="#f7991d"/><polygon points="272.61,144.99 245.68,129.44 252.16,125.78 279.09,141.33" fill="#fad445"/></g><g><polygon points="272.55,175.94 245.63,160.39 245.63,129.49 272.55,145.04" fill="#f6b735"/><polygon points="279.17,172.18 272.53,175.94 272.53,145.04 279.17,141.28" fill="#f7991d"/><polygon points="272.61,144.99 245.68,129.44 252.16,125.78 279.09,141.33" fill="#fad445"/></g><g><polygon points="272.55,175.94 245.63,160.39 245.63,129.49 272.55,145.04" fill="#f6b735"/><polygon points="279.17,172.18 272.53,175.94 272.53,145.04 279.17,141.28" fill="#f7991d"/><polygon points="272.61,144.99 245.68,129.44 252.16,125.78 279.09,141.33" fill="#fad445"/></g><g><polygon points="272.55,175.94 245.63,160.39 245.63,129.49 272.55,145.04" fill="#f6b735"/><polygon points="279.17,172.18 272.53,175.94 272.53,145.04 279.17,141.28" fill="#f7991d"/><polygon points="272.61,144.99 245.68,129.44 252.16,125.78 279.09,141.33" fill="#fad445"/></g><g><polygon points="272.55,175.94 245.63,160.39 245.63,129.49 272.55,145.04" fill="#f6b735"/><polygon points="279.17,172.18 272.53,175.94 272.53,145.04 279.17,141.28" fill="#f7991d"/><polygon points="272.61,144.99 245.68,129.44 252.16,125.78 279.09,141.33" fill="#fad445"/></g><g><polygon points="272.55,175.94 245.63,160.39 245.63,129.49 272.55,145.04" fill="#f6b735"/><polygon points="279.17,172.18 272.53,175.94 272.53,145.04 279.17,141.28" fill="#f7991d"/><polygon points="272.61,144.99 245.68,129.44 252.16,125.78 279.09,141.33" fill="#fad445"/></g><g><polygon points="272.55,175.94 245.63,160.39 245.63,129.49 272.55,145.04" fill="#f6b735"/><polygon points="279.17,172.18 272.53,175.94 272.53,145.04 279.17,141.28" fill="#f7991d"/><polygon points="272.61,144.99 245.68,129.44 252.16,125.78 279.09,141.33" fill="#fad445"/></g><g><polygon points="272.55,175.94 245.63,160.39 245.63,129.49 272.55,145.04" fill="#f6b735"/><polygon points="279.17,172.18 272.53,175.94 272.53,145.04 279.17,141.28" fill="#f7991d"/><polygon points="272.61,144.99 245.68,129.44 252.16,125.78 279.09,141.33" fill="#fad445"/></g><g><polygon points="272.55,175.94 245.63,160.39 245.63,129.49 272.55,145.04" fill="#f6b735"/><polygon points="279.17,172.18 272.53,175.94 272.53,145.04 279.17,141.28" fill="#f7991d"/><polygon points="272.61,144.99 245.68,129.44 252.16,125.78 279.09,141.33" fill="#fad445"/></g><g><polygon points="272.55,175.94 245.63,160.39 245.63,129.49 272.55,145.04" fill="#fcd838"/><polygon points="279.17,172.18 272.53,175.94 272.53,145.04 279.17,141.28" fill="#e8be33"/><polygon points="272.61,144.99 245.68,129.44 252.16,125.78 279.09,141.33" fill="#f2ca25"/></g><g><path d="M250.15,151.87v3.62l-3.17-1.83v-11.61l6.33,3.65c.75.44,1.28,1.33,1.28,2.18v5.09c0,.85-.52,1.16-1.28.72l-3.16-1.82Zm0-2.9l1.26.73v-2.17l-1.26-.73v2.17Z" fill="#1e3667"/><path d="M260.02,153.79v-4.21l3.16,1.82v11.61l-3.16-1.82v-4.49l-1.27-.74v4.49l-3.16-1.82v-11.61l3.16,1.82v4.21l1.27.74Z" fill="#1e3667"/><path d="M267.5,161.89v3.62l-3.17-1.83v-11.61l6.33,3.65c.75.44,1.27,1.33,1.27,2.18v5.09c0,.85-.52,1.16-1.27.72l-3.16-1.82Zm0-2.91l1.26.73v-2.17l-1.26-.73v2.17Z" fill="#1e3667"/></g></g></g><g id="ewE9zgYZV2W569_ts" transform="translate(219.935005,62.839998) scale(1,1)"><g transform="translate(-219.935005,-62.839998)"><g><polygon points="230.09,87.92 203.16,72.37 203.16,41.47 230.09,57.02" fill="#96cc46"/><polygon points="236.71,84.16 230.06,87.92 230.06,57.02 236.71,53.26" fill="#254f24"/><polygon points="230.14,56.97 203.21,41.42 209.69,37.76 236.62,53.31" fill="#6d8a42"/></g><g><path d="M212.85,56.19v1.45l-.49,1.19-3.11-1.8v5.79l3.61,2.08v2.9l-5.5-3.18c-.75-.43-1.27-1.33-1.27-2.18v-8.72c0-.85.52-1.14,1.27-.71l5.49,3.18Z" fill="#1e3667"/><path d="M215.97,62.63v-2.92l2.04,1.18v2.92l2.56,1.48v2.34l-2.56-1.48v2.94l-2.04-1.18v-2.93l-2.55-1.47v-2.34l2.55,1.46Z" fill="#1e3667"/><path d="M223.7,67.09v-2.92l2.04,1.18v2.92l2.56,1.48v2.34l-2.56-1.48v2.94l-2.04-1.18v-2.93l-2.55-1.47v-2.34l2.55,1.46Z" fill="#1e3667"/></g></g></g><g id="ewE9zgYZV2W578_ts" transform="translate(369.544998,142.364998) scale(1,1)"><g transform="translate(-369.544998,-142.364998)"><g><polygon points="380.49,169.4 351.46,152.64 351.46,119.33 380.49,136.09" fill="#ec6379"/><polygon points="387.63,165.35 380.46,169.4 380.46,136.09 387.63,132.04" fill="#ad3447"/><polygon points="380.55,136.04 351.52,119.28 358.51,115.33 387.54,132.09" fill="#d84e64"/></g><g><path d="M362.34,135.02v1.56l-.53,1.29-3.36-1.94v6.24l3.89,2.24v3.13l-5.93-3.43c-.81-.47-1.37-1.44-1.37-2.35v-9.4c0-.91.56-1.23,1.37-.76l5.93,3.42Z" fill="#1e3667"/><path d="M362.95,139.56v-2.63c0-.91.56-1.23,1.37-.76l5.93,3.42v1.54l-.53,1.3-3.36-1.94v.57l2.97,3.98c.75,1.01.92,1.66.92,2.66v2.84c0,.91-.56,1.23-1.36.77l-5.95-3.44v-3.13l3.89,2.24v-.82l-2.97-3.97c-.73-.99-.91-1.63-.91-2.63Z" fill="#1e3667"/><path d="M370.88,144.14v-2.63c0-.91.56-1.23,1.37-.76l5.93,3.43v1.54l-.53,1.3-3.36-1.94v.57l2.97,3.98c.75,1,.92,1.66.92,2.66v2.84c0,.91-.56,1.23-1.36.77l-5.95-3.43v-3.13l3.89,2.24v-.82l-2.97-3.97c-.74-1.02-.91-1.65-.91-2.65Z" fill="#1e3667"/></g></g></g><g><g><polygon points="336.09,225.17 308.65,209.33 308.65,177.83 336.09,193.68" fill="#96cc46"/><polygon points="342.84,221.34 336.06,225.17 336.06,193.68 342.84,189.85" fill="#254f24"/><polygon points="336.15,193.63 308.7,177.78 315.31,174.06 342.75,189.9" fill="#6d8a42"/></g><g><path d="M311.61,193.29v-2.48c0-.86.53-1.16,1.3-.72l5.61,3.24v1.45l-.5,1.23-3.18-1.83v.54l2.81,3.77c.71.95.87,1.57.87,2.51v2.69c0,.86-.53,1.16-1.28.73l-5.62-3.24v-2.96l3.67,2.12v-.78l-2.8-3.75c-.72-.97-.88-1.57-.88-2.52Z" fill="#1e3667"/><path d="M324.5,208.61l.65,1.52v1.47l-2.45-1.42-.49-2.9-1.52-.88c-.77-.44-1.3-1.36-1.3-2.22v-8.89c0-.86.53-1.16,1.3-.72l5.15,2.97c.77.44,1.3,1.36,1.3,2.22v8.89c0,.86-.53,1.16-1.3.72l-1.34-.76Zm-1.88-9.94v5.9l1.28.74v-5.9l-1.28-.74Z" fill="#1e3667"/><path d="M328.31,198.98l3.22,1.86v8.88l3.25,1.88v2.96l-6.47-3.73v-11.85Z" fill="#1e3667"/></g></g><g><path d="M202.98,257.25c-1.08.11-2.97,1.06-2.97,3.65c0,2.6,2.42,4.91,3.5,5.03s2.1.21,3.49-1.27c1.1-1.17,2.09-4.77.3-6.28-1.02-.86-1.9-1.37-4.32-1.13Z" fill="#ea6f00"/><path d="M202.81,257.7c.45-.84-2.8.53-2.8,2.81s2.12,4.31,3.07,4.42s1.85.19,3.06-1.11c.96-1.03,1.84-4.18.27-5.51-.9-.76-5,1.98-3.6-.61Z" fill="#ff871a"/><path d="M201.52,259.33c-.32.03-.88.31-.88,1.08s.72,1.46,1.04,1.5.63.06,1.04-.38c.33-.35.62-1.42.09-1.87-.3-.25-.57-.4-1.29-.33Z" fill="#ffae59"/><path d="M203.66,258.07c0,0-.48-1.44-.22-1.94s.26-.5.26-.5l.45.26c0,0-.42.26-.48.5-.07.25-.01,1.68-.01,1.68Z" fill="#6d8a42"/></g><g><path d="M193.46,278.85c-1.86,1.07-4.89,1.07-6.76-.01s-1.88-2.83-.02-3.9s4.89-1.07,6.76.01s1.88,2.83.02,3.9Z" fill="#d84e64"/><rect width="9.56" height="8.24" rx="0" ry="0" transform="translate(185.29 268.56)" fill="#d84e64"/><path d="M193.46,270.41c-1.86,1.07-4.89,1.07-6.76-.01s-1.88-2.83-.02-3.9s4.89-1.07,6.76.01s1.88,2.83.02,3.9Z" fill="#ed8d9b"/><path d="M194.27,268.47c0,.26-.1.51-.28.76-.19.24-.46.47-.82.68-.81.47-1.9.72-3.07.72-1.18,0-2.29-.26-3.11-.74-.37-.21-.66-.46-.85-.72-.18-.24-.27-.49-.27-.74c0-.52.39-1.03,1.1-1.44.81-.47,1.9-.72,3.07-.72c1.18,0,2.29.26,3.11.74.71.41,1.12.94,1.12,1.46Z" fill="#d84e64"/><path d="M193.98,269.23c-.19.24-.46.47-.82.68-.81.47-1.9.72-3.07.72-1.18,0-2.29-.26-3.11-.74-.37-.21-.66-.46-.85-.72.19-.24.46-.47.82-.68.81-.47,1.9-.72,3.07-.72c1.18,0,2.29.26,3.11.74.38.21.66.46.85.72Z" fill="#761f24"/><path d="M194.7,270.91l-.72.42.86.55c.53.3,1.41,1.39,1.41,2l.08.92c0,.96-.4,1.42-1.18,1.35l-.45-.05-.72.42l1.12.95c.83.04,1.9-1.02,1.93-2.06l.03-1.48c.02-.81-.53-1.82-1.25-2.29l-1.11-.73Z" fill="#ed8d9b"/><path d="M193.98,271.32v.77l.78.45c.52.3.95,1.04.95,1.64v.91c0,.96-.5,1.54-1.28,1.46l-.45-.04v.91l.93.04c.83.04,1.37-.6,1.39-1.64l.03-1.48c.02-.81-.46-1.82-1.17-2.29l-1.18-.73Z" fill="#ec6379"/></g><g><g><polygon points="337.55,343.17 312.05,328.44 312.05,299.18 337.55,313.9" fill="#fcd838"/><polygon points="343.82,339.61 337.52,343.17 337.52,313.9 343.82,310.35" fill="#e8be33"/><polygon points="337.6,313.86 312.1,299.13 318.24,295.67 343.74,310.39" fill="#f2ca25"/></g><g><g><g><g clip-path="url(#ewE9zgYZV2W625)"><g><g><g><g><path d="M319.54,313.2c-.26-.06-.5-.08-.73-.06-.52.04-.88.2-1.08.5-.21.29-.44.8-.69,1.56l-.79,2.33c-.18.54-.3.95-.35,1.25s-.03.62.06.96.27.69.54,1.04c.28.35.6.63.98.85.21.12.41.2.6.25.1.02.2.04.29.04.28.01.53-.06.76-.22l.02.69l1.42.8l1.44-4.21-2.65-1.5-.4,1.19.45.26-.31.94c-.13.36-.24.59-.34.68-.07.07-.16.08-.26.06-.05-.01-.1-.03-.15-.06-.15-.09-.23-.2-.24-.34-.01-.15.05-.39.16-.74l1.29-3.76c.14-.39.24-.63.32-.7.06-.05.13-.06.21-.04.04.01.08.03.13.05.16.09.25.21.25.34c0,.14-.07.43-.22.88l-.24.71l2.26,1.28.11-.34c.22-.64.32-1.17.3-1.58-.01-.41-.2-.86-.55-1.36-.35-.49-.87-.93-1.52-1.29-.39-.23-.74-.38-1.07-.46" fill="#1e3667"/><path d="M325.28,316.46c-.1-.02-.2-.04-.3-.05-.43-.06-.78,0-1.05.18-.26.18-.5.57-.7,1.17-.14.41-.2.79-.17,1.13.02.34.1.63.24.89.13.26.41.71.87,1.36.45.65.71,1.08.81,1.31.09.22.06.56-.1,1.02-.07.21-.16.34-.27.41-.07.05-.15.06-.24.04-.05-.01-.1-.03-.15-.06-.15-.09-.24-.18-.27-.3-.04-.12,0-.32.11-.62l.33-.95-2.1-1.19-.17.52c-.2.58-.29,1.08-.26,1.47.03.4.21.81.57,1.26.35.45.84.84,1.44,1.18.42.24.83.4,1.21.49.11.03.23.05.34.06.47.05.83-.01,1.07-.19s.45-.56.64-1.11c.27-.77.32-1.4.18-1.9-.15-.49-.63-1.29-1.45-2.4-.29-.38-.45-.66-.48-.84-.03-.17,0-.39.09-.65.07-.21.15-.34.26-.39.07-.04.15-.05.23-.04.04.01.08.03.13.05.12.07.21.16.23.27.03.1,0,.29-.09.56l-.2.58l2.1,1.18.11-.3c.21-.62.3-1.1.25-1.44s-.24-.71-.6-1.11c-.36-.41-.83-.77-1.41-1.11-.45-.23-.84-.4-1.2-.48" fill="#1e3667"/><path d="M331.34,319.87c-.1-.02-.19-.04-.28-.05-.43-.07-.79-.03-1.1.11-.3.14-.52.34-.66.61-.14.25-.31.67-.5,1.23l-.78,2.29c-.27.77-.39,1.38-.38,1.85.01.46.19.92.55,1.38s.86.87,1.53,1.25c.38.21.75.36,1.09.45.22.05.44.08.65.08.52-.01.9-.15,1.14-.42s.51-.81.78-1.62l.11-.31-2.26-1.27-.33.99c-.15.43-.27.68-.36.77-.06.06-.14.07-.24.05-.05-.01-.1-.03-.15-.06-.17-.1-.26-.22-.28-.37-.01-.15.05-.41.18-.79l1.24-3.64c.14-.4.25-.64.34-.73.06-.06.14-.08.24-.05.05.01.11.04.18.08.16.09.26.2.27.33.02.12-.04.39-.18.78l-.46,1.36l2.26,1.27.25-.75c.25-.73.37-1.3.35-1.73s-.2-.87-.56-1.35c-.35-.47-.86-.9-1.53-1.28-.4-.23-.77-.38-1.11-.46" fill="#1e3667"/></g></g></g></g><clipPath id="ewE9zgYZV2W625"><use xlink:href="#ewE9zgYZV2W3"/></clipPath></g></g></g></g></g></svg>